<?xml version="1.0" encoding="UTF-8" standalone="no"?>
<svg
   xmlns:dc="http://purl.org/dc/elements/1.1/"
   xmlns:cc="http://creativecommons.org/ns#"
   xmlns:rdf="http://www.w3.org/1999/02/22-rdf-syntax-ns#"
   xmlns:svg="http://www.w3.org/2000/svg"
   xmlns="http://www.w3.org/2000/svg"
   viewBox="0 0 1313.5732 319.85333"
   height="319.85333"
   width="1313.5732"
   xml:space="preserve"
   id="svg2"
   version="1.1"><metadata
     id="metadata8"><rdf:RDF><cc:Work
         rdf:about=""><dc:format>image/svg+xml</dc:format><dc:type
           rdf:resource="http://purl.org/dc/dcmitype/StillImage" /></cc:Work></rdf:RDF></metadata><defs
     id="defs6"><clipPath
       id="clipPath38"
       clipPathUnits="userSpaceOnUse"><path
         id="path36"
         d="m 1821.59,1942.73 h -38.2 c -5,9.4 -21.1,12.8 -29.1,13.9 -11.11,1.5 -22,3.5 -32.9,6 -86.5,20.2 -181,68.7 -181,68.7 -172.1,77.6 -178.8,214.3 -178.8,214.3 -2.6,76.6 19.8,127.1 30.2,146.3 2.9,5.3 8.8,7.9 14.6,6.6 75.1,-17.3 167.1,-42.8 204.6,-53.4 13.4,-3.7 26.5,-8.6 38.9,-14.7 226.2,-111.9 171.7,-387.7 171.7,-387.7 z" /></clipPath><linearGradient
       id="linearGradient48"
       spreadMethod="pad"
       gradientTransform="matrix(239.132,-537.1,-537.1,-239.132,1475.39,2432.16)"
       gradientUnits="userSpaceOnUse"
       y2="0"
       x2="1"
       y1="0"
       x1="0"><stop
         id="stop40"
         offset="0"
         style="stop-opacity:1;stop-color:#47be70" /><stop
         id="stop42"
         offset="0.153631"
         style="stop-opacity:1;stop-color:#47be70" /><stop
         id="stop44"
         offset="0.829609"
         style="stop-opacity:1;stop-color:#5cc7ad" /><stop
         id="stop46"
         offset="1"
         style="stop-opacity:1;stop-color:#5cc7ad" /></linearGradient></defs><g
     transform="matrix(1.3333333,0,0,-1.3333333,0,319.85333)"
     id="g10"><g
       transform="scale(0.1)"
       id="g12"><path
         id="path14"
         style="fill:#747a7e;fill-opacity:1;fill-rule:nonzero;stroke:none"
         d="m 4282.31,133.191 c -12.79,44.618 -25.45,88.77 -38.1,132.911 -0.21,-0.032 -0.43,-0.071 -0.65,-0.114 -14.64,-44.199 -29.28,-88.398 -43.99,-132.797 27.8,0 55.05,0 82.74,0 z M 4122.12,18.4492 c 1.19,1.043 2.32,2.9492 3.56,3.0117 9.62,0.4883 14.47,6.9375 17.8,14.5704 4.06,9.3203 7.46,18.9375 10.82,28.5507 22.52,64.379 44.96,128.77 67.35,193.199 1.22,3.489 2.02,7.211 2.48,10.891 0.65,5.289 -1.07,7.84 -5.89,10.09 -1.12,0.527 -2.27,1.078 -3.28,1.789 -4.13,2.937 -4.1,8.738 0.4,11.07 2.76,1.43 6.1,2.34 9.2,2.41 12.08,0.278 24.16,0.117 36.24,0.16 6.48,0.02 11.11,-2.882 13.2,-8.972 3.3,-9.637 6.39,-19.348 9.34,-29.09 21.28,-70.25 42.46,-140.52 63.8,-210.7501 1.86,-6.1289 4.46,-12.0703 7.04,-17.957 1.62,-3.6914 4.68,-5.6836 8.92,-5.7227 2.12,-0.0195 4.75,0.2305 5.38,-2.5898 0.63,-2.8008 -0.11,-5.6992 -2.65,-7.1406 -2.45,-1.3985 -5.38,-2.66802 -8.12,-2.70708 -18.02,-0.23047 -36.03,-0.21094 -54.05,-0.01172 -2.55,0.03125 -5.26,1.1914 -7.58,2.4219 -2.68,1.4297 -3.35,4.1484 -2.63,7.0586 0.67,2.6914 2.94,2.8281 5.18,3.0703 9.87,1.0312 12.51,3.9414 10.51,13.8789 -2.18,10.7695 -5.31,21.3594 -8.25,31.9687 -4.32,15.6211 -8.84,31.1914 -13.35,47.0426 -1.08,0 -2.11,0 -3.13,0 -29.27,0 -58.54,-0.031 -87.8,0.059 -2.39,0.012 -3.35,-0.668 -4.08,-2.969 -7.45,-23.4919 -15.14,-46.8904 -22.48,-70.4099 -1.11,-3.5625 -1.13,-7.6094 -0.98,-11.4023 0.21,-5.1172 2.76,-7.418 7.8,-8.0079 0.83,-0.1015 1.66,-0.2109 2.49,-0.25 2.31,-0.1015 4.54,-0.5507 5.12,-3.1601 0.63,-2.832 0.08,-5.7305 -2.66,-7.0508 -2.54,-1.2383 -5.49,-2.23047 -8.28,-2.28125 -13.33,-0.20703 -26.66,-0.19922 -39.99,0.01172 -4.87,0.07812 -9.68,0.98833 -11.43,6.71873 0,0.8321 0,1.6602 0,2.5" /><path
         id="path16"
         style="fill:#747a7e;fill-opacity:1;fill-rule:nonzero;stroke:none"
         d="m 8474.83,211.18 c 0,-16.032 0,-32.078 0,-48.121 0,-4.161 0.65,-5.45 4.78,-6.45 4.43,-1.07 8.99,-1.898 13.53,-2.109 13.81,-0.621 27.7,-1.66 41.37,1.512 22.17,5.117 37.68,17.808 44.79,39.879 3.66,11.339 3.82,22.968 2.3,34.621 -2.84,21.847 -12.99,37.136 -37.59,42.929 -17.37,4.079 -35.02,3.45 -52.55,2.008 -13.65,-1.109 -16.62,-5.168 -16.63,-18.949 -0.01,-15.102 0,-30.211 0,-45.32 z m 0,-72.938 c 0,-1.23 0,-2.23 0,-3.242 0,-30.531 -0.08,-61.0391 0.07,-91.5703 0.03,-4.5195 0.75,-9.1289 1.83,-13.5313 1.2,-4.8789 4.6,-7.7695 9.89,-8.0078 2.92,-0.1406 5.75,-0.5586 6.21,-4.3008 0.37,-3.1289 -1.4,-5.9882 -4.91,-7.1015 -2.44,-0.76955 -5.09,-1.27736 -7.65,-1.29689 -15.92,-0.1211 -31.87,-0.14063 -47.81,0.02734 -2.94,0.03125 -5.95,0.85155 -8.78,1.79295 -2.7,0.8867 -3.98,3.1602 -3.97,6.0899 0.01,2.7304 1.22,4.6875 3.97,4.5586 8.82,-0.3907 12.73,5.6718 13.61,15 0.29,3.1093 0.39,6.2304 0.39,9.3593 0.02,70.7305 0.05,141.4605 -0.06,212.1995 -0.01,4.941 -0.57,10 -1.73,14.801 -1.39,5.75 -4.93,8.128 -10.89,8.492 -2.33,0.136 -4.4,0.519 -5.14,3.117 -0.79,2.793 0.25,6.152 2.81,7.332 2.4,1.098 5.13,2.07 7.72,2.07 35.53,0.09 71.05,0.34 106.56,-0.16 16.8,-0.23 33.41,-2.832 49,-9.75 22.17,-9.84 33.94,-27.062 35.73,-51.101 1.7,-22.918 -3.73,-43.86 -18.5,-61.821 -13.63,-16.59 -31.87,-25.301 -52.52,-29.57 -0.89,-0.168 -1.76,-0.399 -3.01,-0.688 6.78,-11.179 13.05,-22.222 20,-32.832 11.95,-18.2887 24.17,-36.4176 36.58,-54.4098 6.31,-9.1289 14.49,-16.6172 23.12,-23.5703 0.82,-0.6601 1.62,-1.3203 2.39,-2.0078 5.74,-5.2109 5.71,-10.7617 -0.4,-15.7227 -6.86,-5.54684 -15.03,-6.28902 -23.39,-5.46871 -12.15,1.1914 -20.86,8.49221 -27.63,17.65231 -8.62,11.6993 -16.55,23.9766 -24.09,36.4063 -13.06,21.5312 -25.67,43.3317 -38.26,65.1407 -4.19,7.25 -10.05,10.5 -18.36,10.59 -7.46,0.082 -14.92,0.972 -22.78,1.523" /><path
         id="path18"
         style="fill:#747a7e;fill-opacity:1;fill-rule:nonzero;stroke:none"
         d="m 4932.24,155.031 c 0,-33.64 0,-67.2693 0.01,-100.9216 0,-2.3906 -0.06,-4.7891 0.09,-7.168 0.7,-10.9297 4.41,-15.3828 15.17,-16.6797 15.44,-1.8633 30.97,-1.9922 46.42,0.0703 18.24,2.4375 34.35,9.6485 47.72,22.4883 14.31,13.7383 22.9,30.8086 28.06,49.6597 8.79,32.149 9.58,64.719 3.94,97.461 -2.51,14.59 -7.34,28.391 -15.81,40.707 -14.48,21.043 -35.55,30.543 -60,34.071 -15.33,2.211 -30.74,1.672 -46.15,1.14 -3.2,-0.109 -6.44,-0.55 -9.58,-1.25 -6.76,-1.48 -9.61,-5.129 -9.84,-12.109 -0.04,-1.25 -0.02,-2.5 -0.02,-3.75 -0.01,-34.57 -0.01,-69.148 -0.01,-103.719 z m 12.92,139.539 c 18.32,-0.371 36.66,-0.351 54.96,-1.211 20.83,-0.968 41.12,-4.769 59.92,-14.429 21.87,-11.239 36.45,-28.93 45.29,-51.578 6.61,-16.942 9.52,-34.633 10.73,-52.692 1.17,-17.648 0.84,-35.191 -3.19,-52.488 C 5103.7,82.8008 5083.53,50.8516 5048.93,28.9609 5030.74,17.4414 5010.7,11.2305 4989.26,9.67969 4982.94,9.23047 4976.57,9.10938 4970.23,9.08984 4944.61,9.03906 4918.99,9 4893.36,9.14844 c -3.98,0.02344 -8.04,0.79297 -11.92,1.76176 -2.86,0.7109 -4.31,3.0898 -4.31,6.1718 0,2.7188 1.17,4.5782 3.98,4.5391 8.44,-0.1094 12.33,4.5898 13.53,14.3789 0.36,2.8789 0.45,5.8203 0.45,8.7305 0.02,71.3515 0.05,142.6915 -0.05,214.0315 -0.01,4.738 -0.63,9.578 -1.75,14.179 -1.31,5.379 -5.17,8.399 -10.9,8.59 -2.32,0.071 -4.41,0.469 -5.12,3.117 -0.76,2.852 0.26,6.25 2.98,7.192 3.67,1.262 7.63,2.23 11.47,2.281 17.81,0.238 35.62,0.098 53.43,0.098 0.01,0.121 0.01,0.242 0.01,0.351" /><path
         id="path20"
         style="fill:#747a7e;fill-opacity:1;fill-rule:nonzero;stroke:none"
         d="m 7854.59,144.43 c -0.78,12.468 -1.26,24.961 -2.41,37.39 -1.65,17.762 -5.01,35.211 -11.79,51.84 -5.34,13.11 -12.45,25.149 -23.99,33.68 -23.39,17.262 -49.17,18.609 -75.6,8.859 -18.6,-6.847 -29.8,-21.707 -37.3,-39.508 -8.24,-19.582 -11.28,-40.261 -11.7,-61.269 -0.32,-16.32 0.21,-32.692 1.19,-48.992 1.07,-17.91 4.32,-35.5198 10.52,-52.4612 4.92,-13.4571 11.78,-25.7266 22.56,-35.4688 12.61,-11.4102 27.79,-16.2891 44.47,-17.2812 18.89,-1.1172 35.89,3.7031 50.22,16.4531 13.2,11.7265 20.82,26.8281 25.82,43.4297 6.23,20.6364 7.85,41.8594 8.01,63.3284 z m -204.3,5.242 c 0.46,24.457 3.21,48.578 11.36,71.828 8.34,23.781 21.6,44.012 42.77,58.41 14.73,10.02 31.14,15.68 48.67,18.199 19.35,2.77 38.61,2.68 57.59,-2.621 30.39,-8.488 52.43,-27.269 67.17,-54.859 10.11,-18.918 15.18,-39.309 17,-60.57 2.34,-27.09 0.55,-53.887 -6.33,-80.2192 -6.46,-24.6992 -17.48,-46.9687 -35.96,-65.0078 -18.97,-18.5312 -41.94,-28.55075 -68.14,-31.35153 -21.75,-2.33203 -42.84,0.21875 -62.83,9.46873 -26.94,12.461 -45.5,33.1094 -57.47,59.9297 -10.9,24.4414 -14.46,50.2501 -13.83,76.7931" /><path
         id="path22"
         style="fill:#747a7e;fill-opacity:1;fill-rule:nonzero;stroke:none"
         d="m 7032.32,2.82031 c -16.2,0.58985 -35.47,2.66016 -53.71,10.44919 -8.24,3.5313 -15.66,8.2305 -21.39,15.2696 -5.24,6.4218 -8.06,13.7929 -8.26,22.1015 -0.21,8.2383 -0.1,16.5391 2.69,24.3789 1.33,3.7227 3.3,7.5508 6,10.3594 5.47,5.7109 12.16,4.0899 14.84,-3.2773 2.61,-7.1211 4.59,-14.4727 7.27,-21.5703 9.29,-24.6329 27.45,-37.2618 53.5,-39.0899 14.23,-1 28.1,0.1992 41.22,6.2305 17.4,7.9883 26.17,21.9883 28.37,40.6875 2.74,23.2109 -8.15,39.1526 -27.31,50.0816 -17.35,9.879 -35.34,18.61 -52.81,28.258 -13.47,7.442 -27.04,14.852 -39.73,23.481 -15.61,10.601 -25.4,25.621 -28.23,44.621 -4.83,32.281 11.2,61.238 41.32,74.89 16.88,7.649 34.71,10.008 53.02,9.309 16.82,-0.648 33.41,-2.949 49.31,-8.691 5.03,-1.829 9.96,-4.289 14.42,-7.25 7.38,-4.899 11.37,-12.168 11.51,-21.09 0.14,-10.571 -1.05,-21.028 -5.39,-30.821 -1.37,-3.058 -3.3,-6.109 -5.69,-8.437 -4.96,-4.859 -10.93,-3.5 -13.4,2.98 -1.86,4.938 -2.94,10.168 -4.59,15.207 -1.51,4.641 -3.09,9.282 -5.04,13.743 -5.43,12.5 -14.96,20.32 -28.15,23.507 -13.13,3.153 -26.42,3.633 -39.65,0.711 -20.97,-4.621 -32.95,-19.679 -33.19,-41.648 -0.06,-5.379 0.37,-10.859 1.36,-16.141 1.73,-9.25 7.04,-16.679 14.71,-21.699 11.39,-7.43 23.14,-14.402 35.14,-20.789 15.68,-8.371 31.87,-15.812 47.65,-24.023 10.92,-5.668 20.89,-12.879 29.99,-21.25 13.29,-12.239 20.08,-27.411 20.25,-45.4106 0.34,-35.0664 -17.16,-59.039 -47.45,-74.5078 C 7074.8,5.17188 7059,2.55078 7032.32,2.82031" /><path
         id="path24"
         style="fill:#747a7e;fill-opacity:1;fill-rule:nonzero;stroke:none"
         d="m 5750.63,60.7695 c 3.67,11.6797 7.07,22.4805 10.46,33.2891 17.31,55.0434 34.65,110.0704 51.82,165.1714 1.41,4.481 2.06,9.352 2.16,14.051 0.11,5.117 -2.85,7.867 -7.54,8.25 -2.09,0.16 -4.08,0.461 -4.67,2.821 -0.68,2.75 -0.16,5.539 2.52,6.757 3.07,1.383 6.47,2.723 9.76,2.821 11.85,0.332 23.74,0.23 35.6,0.058 2.19,-0.027 4.5,-0.918 6.5,-1.918 2.47,-1.23 3.51,-4.57 2.79,-7.359 -0.69,-2.641 -2.69,-3.109 -5.05,-3.211 -4.75,-0.219 -8.54,-2.578 -10.75,-6.559 -2.97,-5.32 -5.81,-10.839 -7.76,-16.589 -26.97,-79.34 -53.72,-158.7622 -80.68,-238.102 -1.72,-5.0703 -3.96,-10.168 -7,-14.53125 -5.79,-8.29688 -14.43,-7.44922 -18.35,1.8125 -3.69,8.68755 -6.57,17.73825 -9.62,26.68755 -25.88,76.1912 -51.68,152.4102 -77.62,228.5902 -1.56,4.589 -3.83,8.98 -6.12,13.273 -1.82,3.398 -4.89,5.316 -8.9,5.457 -2.1,0.07 -4.28,0.07 -4.96,2.762 -0.78,3.09 0.14,6.418 2.74,7.668 2.28,1.101 4.92,2.019 7.41,2.051 17.71,0.171 35.41,0.16 53.12,0.011 2.51,-0.019 5.13,-0.883 7.47,-1.902 2.84,-1.238 3.88,-4.25 3.21,-7.399 -0.64,-2.992 -2.98,-3.019 -5.32,-3.199 -4.97,-0.39 -8.27,-3.332 -8.51,-8.289 -0.15,-3.152 0.16,-6.504 1.11,-9.492 10.33,-32.18 20.81,-64.289 31.28,-96.41 11.22,-34.41 22.5,-68.7814 33.75,-103.1681 0.3,-0.8906 0.6,-1.7735 1.15,-3.4024" /><path
         id="path26"
         style="fill:#747a7e;fill-opacity:1;fill-rule:nonzero;stroke:none"
         d="m 9247.81,141.352 c 3.15,7.269 6.17,14.207 9.17,21.16 14.19,32.847 28.41,65.679 42.49,98.57 1.51,3.488 2.55,7.27 3.24,11.027 1.07,5.871 -1.32,8.75 -7.24,9.473 -2.15,0.27 -3.9,1.117 -4.33,3.379 -0.52,2.758 -0.01,5.5 2.63,6.789 2.45,1.191 5.28,2.199 7.98,2.262 11.03,0.238 22.08,0.199 33.11,0.019 2.42,-0.051 4.93,-0.883 7.16,-1.871 2.58,-1.129 3.84,-4.32 3.16,-6.84 -0.75,-2.711 -2.74,-3.738 -5.4,-3.789 -4.52,-0.101 -7.77,-2.5 -9.89,-6.191 -3.05,-5.301 -5.94,-10.731 -8.56,-16.27 -20.48,-43.351 -40.96,-86.711 -61.2,-130.179 -1.97,-4.219 -3.26,-9.172 -3.32,-13.801 -0.32,-25.1994 -0.23,-50.4181 -0.07,-75.6212 0.02,-3.4688 0.87,-7.0274 1.92,-10.3672 1.36,-4.3125 4.5,-6.8399 9.22,-7.1797 2.9,-0.211 6.1,-0.1914 6.53,-4.2617 0.38,-3.6485 -1.46,-6.2188 -5.66,-7.4414 -2.07,-0.60942 -4.29,-1.01958 -6.43,-1.02739 -16.16,-0.08985 -32.3,-0.13282 -48.44,0.03906 -2.94,0.03125 -5.97,0.89063 -8.77,1.87893 -2.86,1.0117 -3.95,3.582 -3.75,6.5508 0.15,2.2109 1.28,3.582 3.6,4.039 10.67,2.0703 13.56,5.4024 14.17,16.4414 0.23,4.0508 0.13,8.1211 0.14,12.1797 0.01,19.8008 -0.1,39.5899 0.05,59.3907 0.06,7.859 -1.54,15.09 -5.01,22.238 -22.05,45.481 -43.83,91.102 -65.75,136.66 -1.35,2.801 -3.04,5.45 -4.72,8.071 -1.98,3.101 -4.88,4.761 -8.61,4.82 -2.43,0.039 -4.65,0.359 -5.34,3.23 -0.72,3.059 0.43,6.122 3.28,7.379 2.23,1 4.74,1.891 7.14,1.911 17.19,0.152 34.38,0.16 51.57,-0.02 2.48,-0.031 5.12,-1.039 7.35,-2.219 2.51,-1.34 3.29,-3.949 2.64,-6.769 -0.6,-2.571 -2.57,-3.223 -4.93,-3.481 -4.87,-0.551 -7.3,-3.289 -6.67,-8.301 0.49,-3.871 1.28,-7.89 2.87,-11.421 17.8,-39.661 35.78,-79.25 53.72,-118.848 0.19,-0.441 0.48,-0.84 0.95,-1.609" /><path
         id="path28"
         style="fill:#747a7e;fill-opacity:1;fill-rule:nonzero;stroke:none"
         d="m 6399.27,294.121 c 8.34,0 16.67,0.16 25,-0.082 2.71,-0.078 5.54,-0.891 8.08,-1.937 2.69,-1.102 4,-4.481 3.27,-7.082 -0.8,-2.829 -3.04,-3.43 -5.61,-3.469 -5.37,-0.11 -9.07,-2.871 -10.31,-7.91 -1.15,-4.692 -1.88,-9.621 -1.89,-14.45 -0.11,-68.109 -0.09,-136.23 -0.05,-204.3512 0,-6.5585 0.28,-13.1093 0.54,-19.6484 0.07,-1.5508 0.48,-3.1016 0.92,-4.582 1.77,-5.9492 4.44,-8.1094 10.66,-8.75 2.25,-0.2383 4.76,-0.0274 5.32,-3.168 0.59,-3.4297 -0.48,-6.4297 -3.45,-7.6094 -2.55,-1.0234 -5.39,-1.82028 -8.12,-1.85153 -16.34,-0.17188 -32.7,-0.12891 -49.05,-0.03125 -2.25,0.01953 -4.58,0.5 -6.72,1.19918 -3.73,1.2227 -5.13,3.8516 -4.83,7.7422 0.17,2.25 1.23,3.2813 3.47,3.5977 9.39,1.3437 12.65,4.7617 13.63,14.2617 0.31,3 0.45,6.0195 0.45,9.0391 0.03,71.1329 0.06,142.2809 -0.05,213.4099 -0.01,4.84 -0.57,9.793 -1.7,14.492 -1.41,5.778 -4.94,8.2 -10.84,8.571 -2.31,0.129 -4.41,0.457 -5.2,3.039 -0.84,2.769 0.2,6.129 2.85,7.281 2.7,1.156 5.73,2.09 8.64,2.199 8.32,0.278 16.66,0.09 24.99,0.09" /><path
         id="path30"
         style="fill:#1a1d29;fill-opacity:1;fill-rule:nonzero;stroke:none"
         d="M 0,610.98 V 2340.29 H 1190.1 V 2023.48 H 394.012 V 1560.15 H 1190.1 V 1244.24 H 394.012 V 610.98 H 0" /><g
         id="g32"><g
           clip-path="url(#clipPath38)"
           id="g34"><path
             id="path50"
             style="fill:url(#linearGradient48);fill-opacity:1;fill-rule:nonzero;stroke:none"
             d="m 1821.59,1942.73 h -38.2 c -5,9.4 -21.1,12.8 -29.1,13.9 -11.11,1.5 -22,3.5 -32.9,6 -86.5,20.2 -181,68.7 -181,68.7 -172.1,77.6 -178.8,214.3 -178.8,214.3 -2.6,76.6 19.8,127.1 30.2,146.3 2.9,5.3 8.8,7.9 14.6,6.6 75.1,-17.3 167.1,-42.8 204.6,-53.4 13.4,-3.7 26.5,-8.6 38.9,-14.7 226.2,-111.9 171.7,-387.7 171.7,-387.7" /></g></g><path
         id="path52"
         style="fill:#1a1d29;fill-opacity:1;fill-rule:nonzero;stroke:none"
         d="M 1821.59,1942.73 V 611.031 h -370.6 V 1744.53 c 0,21.2 5.4,42.3 17.5,59.8 56.2,81.3 208.6,90.4 208.6,90.4 99.5,5 106.3,48 106.3,48 h 38.2" /><path
         id="path54"
         style="fill:#1a1d29;fill-opacity:1;fill-rule:nonzero;stroke:none"
         d="m 2707.1,1962.29 c -415.44,0 -733.44,-285.21 -733.44,-686.11 0,-411.801 328.37,-685.11 733.44,-685.11 405.06,0 733.43,267.129 733.43,685.11 0,417.41 -328.37,686.11 -733.43,686.11 z m 345.05,-686.62 c 0,-205.42 -133.97,-371.951 -344.97,-371.951 -215.9,0 -342.48,166.531 -342.48,371.951 0,205.42 126.58,371.95 342.48,371.95 218.4,0 344.97,-166.53 344.97,-371.95" /><path
         id="path56"
         style="fill:#1a1d29;fill-opacity:1;fill-rule:nonzero;stroke:none"
         d="m 4829.79,1395.83 c 0,0 8.39,177.6 188.1,247.9 86.7,34 183.8,34.2 270.6,0.4 81.39,-31.6 174.5,-100.1 193.2,-248.3 z m 1010.8,-14.23 c 0,9.47 -0.73,18.99 -2.37,28.31 -100.11,568.26 -670.04,552.42 -670.04,552.42 -408.89,0 -721.89,-285.2 -721.89,-686.2 0,-411.798 320.6,-676.599 721.89,-690.099 0,0 380.41,-22.301 583.21,221 l -202.31,223.199 c 0,0 -104.29,-135.199 -330.29,-135.199 0,0 -312.8,-15.402 -392,276.199 h 1013.8 v 210.37" /><path
         id="path58"
         style="fill:#1a1d29;fill-opacity:1;fill-rule:nonzero;stroke:none"
         d="m 8841.04,1395.83 c 0,0 8.39,177.6 188.09,247.9 86.7,34 183.8,34.2 270.61,0.4 81.39,-31.6 174.49,-100.1 193.19,-248.3 z m 1010.8,-14.23 c 0,9.47 -0.73,18.99 -2.38,28.31 -100.1,568.26 -670.03,552.42 -670.03,552.42 -408.89,0 -721.9,-285.2 -721.9,-686.2 0,-411.798 320.61,-676.599 721.9,-690.099 0,0 380.41,-22.301 583.21,221 l -202.31,223.199 c 0,0 -104.29,-135.199 -330.3,-135.199 0,0 -312.79,-15.402 -391.99,276.199 h 1013.8 v 210.37" /><path
         id="path60"
         style="fill:#1a1d29;fill-opacity:1;fill-rule:nonzero;stroke:none"
         d="M 3596.45,1942.76 V 610.98 h 386.53 v 660.44 c 0,52.79 10.08,105.34 31.81,153.46 31.48,69.7 93.72,148.84 216.28,173.37 21.2,4.24 42.83,5.96 64.45,6.35 l 127.69,2.28 v 355.41 c 0,0 -318.25,20.39 -455.15,-194.35 v 174.82 h -371.61" /><path
         id="path62"
         style="fill:#1a1d29;fill-opacity:1;fill-rule:nonzero;stroke:none"
         d="m 6834.2,1962.29 c 0,0 -298.39,27.24 -455.15,-179.35 v 159.82 H 6007.44 V 610.98 h 386.54 v 740.26 c 0,0 8.72,262.66 310.4,277.46 0,0 266.34,20.24 271.59,-252.23 V 610.98 h 395.6 v 817.88 c 0,0 15.14,511.43 -537.37,533.43" /><path
         id="path64"
         style="fill:#1a1d29;fill-opacity:1;fill-rule:nonzero;stroke:none"
         d="m 8368.65,946.949 c -84.15,-47.48 -144.57,-45.32 -144.57,-45.32 -168.3,0 -168.3,131.621 -168.3,131.621 v 580.96 h 329.75 v 303.36 h -329.75 v 319.68 h -386.23 v -319.68 h -219.39 v -303.36 h 219.39 V 972.84 c 56.11,-416.442 489.81,-387.352 489.81,-387.352 196.34,0 317.17,89.594 317.17,89.594 l -107.88,271.867" /></g></g></svg>