<?xml version="1.0" encoding="UTF-8"?>
<svg xmlns="http://www.w3.org/2000/svg" xmlns:xlink="http://www.w3.org/1999/xlink" width="375pt" height="374.999991pt" viewBox="0 0 375 374.999991" version="1.2">
<defs>
<clipPath id="clip1">
  <path d="M 4.011719 4.011719 L 370.761719 4.011719 L 370.761719 370.761719 L 4.011719 370.761719 Z M 4.011719 4.011719 "/>
</clipPath>
</defs>
<g id="surface1">
<g clip-path="url(#clip1)" clip-rule="nonzero">
<path style=" stroke:none;fill-rule:nonzero;fill:rgb(21.569824%,52.159119%,56.079102%);fill-opacity:1;" d="M 291.984375 198.175781 L 308.058594 198.175781 C 302.894531 256.394531 256.394531 302.894531 198.175781 308.058594 L 198.175781 291.984375 C 198.175781 286.027344 193.34375 281.199219 187.386719 281.199219 C 181.429688 281.199219 176.597656 286.027344 176.597656 291.984375 L 176.597656 308.058594 C 118.378906 302.898438 71.878906 256.398438 66.710938 198.175781 L 82.789062 198.175781 C 88.746094 198.175781 93.574219 193.34375 93.574219 187.386719 C 93.574219 181.429688 88.746094 176.597656 82.789062 176.597656 L 66.710938 176.597656 C 71.878906 118.378906 118.378906 71.878906 176.597656 66.71875 L 176.597656 82.789062 C 176.597656 88.746094 181.429688 93.574219 187.386719 93.574219 C 193.34375 93.574219 198.175781 88.746094 198.175781 82.789062 L 198.175781 66.71875 C 256.394531 71.882812 302.894531 118.378906 308.058594 176.597656 L 291.984375 176.597656 C 286.027344 176.597656 281.199219 181.429688 281.199219 187.386719 C 281.199219 193.34375 286.027344 198.175781 291.984375 198.175781 Z M 359.972656 176.597656 L 329.691406 176.597656 C 324.417969 106.480469 268.296875 50.355469 198.175781 45.089844 L 198.175781 14.800781 C 198.175781 8.839844 193.34375 4.011719 187.386719 4.011719 C 181.429688 4.011719 176.597656 8.839844 176.597656 14.800781 L 176.597656 45.085938 C 106.476562 50.351562 50.351562 106.476562 45.085938 176.597656 L 14.800781 176.597656 C 8.839844 176.597656 4.011719 181.429688 4.011719 187.386719 C 4.011719 193.34375 8.839844 198.175781 14.800781 198.175781 L 45.085938 198.175781 C 50.351562 268.296875 106.476562 324.421875 176.597656 329.691406 L 176.597656 359.972656 C 176.597656 365.933594 181.429688 370.761719 187.386719 370.761719 C 193.34375 370.761719 198.175781 365.933594 198.175781 359.972656 L 198.175781 329.691406 C 268.296875 324.421875 324.417969 268.296875 329.691406 198.175781 L 359.972656 198.175781 C 365.933594 198.175781 370.761719 193.34375 370.761719 187.386719 C 370.761719 181.429688 365.933594 176.597656 359.972656 176.597656 "/>
</g>
<path style=" stroke:none;fill-rule:nonzero;fill:rgb(21.569824%,52.159119%,56.079102%);fill-opacity:1;" d="M 215.40625 37.285156 C 278.269531 47.425781 327.324219 96.488281 337.472656 159.367188 C 337.988281 162.546875 340.738281 164.808594 343.855469 164.808594 C 344.199219 164.808594 344.550781 164.785156 344.894531 164.726562 C 348.425781 164.15625 350.824219 160.832031 350.253906 157.304688 C 339.210938 88.90625 285.851562 35.539062 217.46875 24.503906 C 213.941406 23.914062 210.617188 26.328125 210.046875 29.867188 C 209.480469 33.394531 211.875 36.714844 215.40625 37.285156 "/>
<path style=" stroke:none;fill-rule:nonzero;fill:rgb(21.569824%,52.159119%,56.079102%);fill-opacity:1;" d="M 344.894531 210.046875 C 341.375 209.457031 338.046875 211.871094 337.472656 215.40625 C 327.324219 278.285156 278.269531 327.351562 215.40625 337.488281 C 211.875 338.058594 209.480469 341.382812 210.046875 344.90625 C 210.558594 348.089844 213.308594 350.351562 216.429688 350.351562 C 216.773438 350.351562 217.121094 350.324219 217.46875 350.273438 C 285.851562 339.238281 339.210938 285.867188 350.253906 217.46875 C 350.824219 213.941406 348.425781 210.621094 344.894531 210.046875 "/>
<path style=" stroke:none;fill-rule:nonzero;fill:rgb(21.569824%,52.159119%,56.079102%);fill-opacity:1;" d="M 29.878906 164.726562 C 30.226562 164.785156 30.570312 164.808594 30.917969 164.808594 C 34.039062 164.808594 36.78125 162.546875 37.296875 159.367188 C 47.445312 96.488281 96.503906 47.425781 159.367188 37.285156 C 162.898438 36.714844 165.296875 33.394531 164.726562 29.867188 C 164.15625 26.328125 160.804688 23.917969 157.304688 24.503906 C 88.917969 35.535156 35.558594 88.902344 24.519531 157.304688 C 23.949219 160.832031 26.347656 164.15625 29.878906 164.726562 "/>
<path style=" stroke:none;fill-rule:nonzero;fill:rgb(21.569824%,52.159119%,56.079102%);fill-opacity:1;" d="M 159.367188 337.488281 C 96.5 327.351562 47.445312 278.285156 37.296875 215.40625 C 36.722656 211.871094 33.371094 209.460938 29.878906 210.046875 C 26.347656 210.621094 23.949219 213.9375 24.519531 217.46875 C 35.558594 285.867188 88.917969 339.242188 157.304688 350.273438 C 157.65625 350.328125 158.003906 350.351562 158.34375 350.351562 C 161.464844 350.351562 164.210938 348.085938 164.726562 344.90625 C 165.296875 341.382812 162.898438 338.058594 159.367188 337.488281 "/>
<path style=" stroke:none;fill-rule:nonzero;fill:rgb(21.569824%,52.159119%,56.079102%);fill-opacity:1;" d="M 198.175781 229.464844 L 198.175781 200.324219 C 208.710938 203.1875 210.847656 207.585938 210.847656 214.792969 C 210.847656 221.066406 205.628906 226.648438 198.175781 229.464844 Z M 176.597656 174.164062 C 163.96875 170.085938 163.929688 163.523438 163.929688 160 C 163.929688 153.734375 169.144531 148.144531 176.597656 145.328125 Z M 198.175781 178.136719 L 198.175781 145.34375 C 203.152344 147.222656 207.21875 150.332031 209.335938 154.246094 C 212.171875 159.484375 218.726562 161.429688 223.957031 158.585938 C 229.195312 155.75 231.140625 149.203125 228.300781 143.964844 C 222.542969 133.339844 211.289062 125.765625 198.175781 123.015625 L 198.175781 116.621094 C 198.175781 110.664062 193.34375 105.835938 187.386719 105.835938 C 181.429688 105.835938 176.597656 110.664062 176.597656 116.621094 L 176.597656 122.972656 C 156.972656 127.085938 142.355469 142.105469 142.355469 160 C 142.355469 173.480469 148.644531 190.039062 176.597656 196.410156 L 176.597656 229.480469 C 171.414062 227.539062 167.253906 224.242188 165.207031 220.09375 C 162.558594 214.753906 156.097656 212.574219 150.75 215.210938 C 145.410156 217.855469 143.226562 224.324219 145.867188 229.660156 C 151.453125 240.9375 162.960938 248.953125 176.597656 251.78125 L 176.597656 258.171875 C 176.597656 264.128906 181.429688 268.957031 187.386719 268.957031 C 193.34375 268.957031 198.175781 264.128906 198.175781 258.171875 L 198.175781 251.824219 C 217.800781 247.710938 232.417969 232.695312 232.417969 214.792969 C 232.417969 188.605469 212.71875 180.980469 198.175781 178.136719 "/>
</g>
</svg>
