<?xml version="1.0" encoding="UTF-8"?>
<svg xmlns="http://www.w3.org/2000/svg" xmlns:xlink="http://www.w3.org/1999/xlink" width="375pt" height="374.999991pt" viewBox="0 0 375 374.999991" version="1.2">
<defs>
<clipPath id="clip1">
  <path d="M 19.632812 4.011719 L 355.605469 4.011719 L 355.605469 370.761719 L 19.632812 370.761719 Z M 19.632812 4.011719 "/>
</clipPath>
</defs>
<g id="surface1">
<g clip-path="url(#clip1)" clip-rule="nonzero">
<path style=" stroke:none;fill-rule:nonzero;fill:rgb(21.569824%,52.159119%,56.079102%);fill-opacity:1;" d="M 347.449219 311.199219 C 343.914062 346 320.804688 362.917969 276.804688 362.917969 C 232.800781 362.917969 209.695312 346 206.160156 311.199219 C 203.3125 283.15625 220.472656 253.230469 237.066406 224.292969 C 247.351562 206.359375 257.105469 189.359375 261.132812 174.007812 L 292.472656 174.007812 C 296.503906 189.359375 306.253906 206.359375 316.539062 224.292969 C 333.136719 253.230469 350.292969 283.15625 347.449219 311.199219 Z M 146.144531 307.105469 C 80.71875 307.105469 27.488281 253.941406 27.488281 188.597656 C 27.488281 123.25 80.71875 70.085938 146.144531 70.085938 C 177.828125 70.085938 208.371094 82.894531 230.589844 105.351562 C 230.472656 105.535156 230.359375 105.722656 230.25 105.921875 C 225.164062 115.34375 233.71875 127.152344 242.777344 139.652344 C 245.023438 142.753906 247.335938 145.941406 249.316406 148.972656 L 249.160156 149.007812 L 254.066406 169.824219 C 252.867188 175.171875 250.808594 180.855469 248.167969 186.792969 L 248.167969 183.851562 L 225.953125 183.851562 L 225.953125 191.695312 L 245.890625 191.695312 C 241.484375 200.804688 235.953125 210.453125 230.25 220.394531 C 228.660156 223.175781 227.042969 225.988281 225.429688 228.835938 L 217.636719 224.339844 L 213.710938 231.132812 L 221.59375 235.683594 C 211.058594 254.753906 201.335938 274.984375 198.703125 294.878906 C 182.304688 302.992188 164.632812 307.105469 146.144531 307.105469 Z M 125.394531 62.242188 L 125.394531 36.476562 C 125.394531 34.308594 123.636719 32.550781 121.464844 32.550781 L 114.304688 32.550781 C 110.4375 32.550781 107.292969 29.40625 107.292969 25.542969 L 107.292969 18.863281 C 107.292969 15 110.4375 11.855469 114.304688 11.855469 L 177.164062 11.855469 C 181.03125 11.855469 184.179688 15 184.179688 18.863281 L 184.179688 25.542969 C 184.179688 29.40625 181.03125 32.550781 177.164062 32.550781 L 169.183594 32.550781 C 167.015625 32.550781 165.257812 34.308594 165.257812 36.476562 L 165.257812 62.242188 Z M 241.851562 108.644531 C 245.417969 108.796875 250.121094 109.84375 254.667969 110.855469 C 264.453125 113.03125 273.699219 115.089844 279.1875 110.898438 C 304.386719 91.664062 312.335938 94.003906 314.171875 95.179688 C 316.917969 96.9375 317.101562 102.34375 316.066406 106.917969 C 314.78125 112.613281 309.761719 120.84375 304.910156 128.804688 C 301.765625 133.957031 298.53125 139.265625 295.941406 144.394531 L 255.707031 144.394531 C 253.667969 141.300781 251.375 138.132812 249.140625 135.050781 C 242.582031 126 234.417969 114.734375 237.167969 109.644531 C 237.5625 108.910156 239.3125 108.535156 241.851562 108.644531 Z M 261.273438 166.164062 L 257.992188 152.238281 L 293.933594 152.238281 L 292.019531 166.164062 Z M 41.777344 77.957031 C 40.925781 78.550781 39.890625 78.777344 38.855469 78.59375 C 37.820312 78.414062 36.921875 77.847656 36.328125 77 L 33.582031 73.078125 C 32.34375 71.316406 32.777344 68.875 34.542969 67.636719 L 71.421875 41.851562 C 73.1875 40.617188 75.628906 41.046875 76.867188 42.8125 L 79.613281 46.730469 C 80.851562 48.492188 80.421875 50.933594 78.65625 52.167969 L 69.59375 58.503906 C 69.589844 58.503906 69.589844 58.507812 69.589844 58.507812 C 68.945312 58.957031 68.484375 59.5625 68.210938 60.238281 C 68.199219 60.265625 68.1875 60.289062 68.175781 60.3125 C 68.160156 60.355469 68.148438 60.402344 68.132812 60.445312 C 68.105469 60.519531 68.078125 60.59375 68.058594 60.671875 C 68.054688 60.683594 68.054688 60.695312 68.050781 60.707031 C 67.796875 61.664062 67.902344 62.714844 68.410156 63.628906 C 68.476562 63.742188 68.546875 63.859375 68.625 63.96875 L 78.585938 78.175781 L 65.785156 87.128906 L 55.824219 72.925781 C 55.824219 72.925781 55.824219 72.921875 55.824219 72.921875 C 54.605469 71.1875 52.234375 70.738281 50.464844 71.890625 C 50.429688 71.914062 50.390625 71.933594 50.355469 71.960938 Z M 222.847656 63.964844 C 223.234375 63.410156 223.460938 62.789062 223.53125 62.160156 C 223.636719 61.234375 223.402344 60.289062 222.871094 59.507812 C 222.613281 59.128906 222.28125 58.78125 221.882812 58.503906 L 212.820312 52.167969 C 211.972656 51.574219 211.40625 50.679688 211.222656 49.644531 C 211.039062 48.613281 211.265625 47.578125 211.863281 46.730469 L 214.605469 42.8125 C 215.84375 41.046875 218.289062 40.617188 220.054688 41.851562 L 256.925781 67.636719 C 258.695312 68.875 259.128906 71.316406 257.890625 73.082031 L 255.144531 76.996094 C 253.90625 78.761719 251.464844 79.191406 249.695312 77.957031 L 241.117188 71.960938 C 240.894531 71.804688 240.664062 71.675781 240.421875 71.570312 C 239.945312 71.363281 239.4375 71.257812 238.933594 71.25 C 238.179688 71.238281 237.425781 71.441406 236.777344 71.847656 C 236.667969 71.917969 236.566406 71.992188 236.464844 72.070312 C 236.15625 72.304688 235.882812 72.589844 235.648438 72.921875 L 225.691406 87.128906 L 212.886719 78.175781 Z M 299.480469 169.558594 L 302.261719 149.339844 C 304.792969 144.085938 308.257812 138.394531 311.617188 132.886719 C 317.039062 123.992188 322.160156 115.59375 323.730469 108.648438 C 325.789062 99.53125 323.800781 92.027344 318.410156 88.574219 C 310.027344 83.207031 295.636719 88.46875 274.417969 104.667969 C 271.835938 106.636719 262.898438 104.648438 256.375 103.199219 C 249.582031 101.6875 242.644531 100.144531 237.402344 101.089844 C 235.113281 98.707031 232.742188 96.421875 230.296875 94.238281 L 239.832031 80.636719 L 245.191406 84.382812 C 247.238281 85.816406 249.589844 86.503906 251.921875 86.503906 C 255.632812 86.503906 259.292969 84.757812 261.578125 81.496094 L 264.320312 77.582031 C 268.046875 72.273438 266.75 64.933594 261.433594 61.210938 L 224.558594 35.425781 C 219.246094 31.710938 211.894531 33.003906 208.171875 38.3125 L 205.425781 42.226562 C 203.628906 44.792969 202.9375 47.910156 203.488281 51.007812 C 204.03125 54.105469 205.75 56.800781 208.316406 58.59375 L 214.160156 62.679688 L 204.496094 76.460938 C 202.28125 75.308594 200.027344 74.214844 197.730469 73.1875 C 189.769531 69.632812 181.542969 66.941406 173.113281 65.113281 L 173.113281 40.398438 L 177.164062 40.398438 C 185.363281 40.398438 192.035156 33.730469 192.035156 25.542969 L 192.035156 18.863281 C 192.035156 10.675781 185.363281 4.011719 177.164062 4.011719 L 114.304688 4.011719 C 106.109375 4.011719 99.4375 10.675781 99.4375 18.863281 L 99.4375 25.542969 C 99.4375 33.730469 106.109375 40.398438 114.304688 40.398438 L 117.539062 40.398438 L 117.539062 65.472656 C 106.945312 67.90625 96.753906 71.695312 87.175781 76.746094 L 77.3125 62.683594 L 83.160156 58.59375 C 88.472656 54.882812 89.769531 47.539062 86.046875 42.230469 L 83.300781 38.3125 C 79.574219 33.003906 72.226562 31.710938 66.914062 35.425781 L 30.035156 61.210938 C 24.722656 64.933594 23.425781 72.273438 27.148438 77.578125 L 29.894531 81.5 C 31.691406 84.0625 34.390625 85.777344 37.492188 86.324219 C 38.1875 86.445312 38.878906 86.503906 39.570312 86.503906 C 41.964844 86.503906 44.289062 85.777344 46.28125 84.382812 L 51.640625 80.636719 L 61.496094 94.691406 C 59.863281 96.164062 58.257812 97.683594 56.6875 99.25 C 32.792969 123.117188 19.632812 154.847656 19.632812 188.597656 C 19.632812 222.347656 32.792969 254.078125 56.6875 277.941406 C 80.582031 301.804688 112.351562 314.949219 146.144531 314.949219 C 164.023438 314.949219 181.816406 311.132812 198.015625 303.867188 C 197.96875 306.585938 198.070312 309.296875 198.347656 311.988281 C 200.761719 335.78125 211.769531 352.625 231.058594 362.054688 C 248.871094 370.761719 269.894531 370.761719 276.804688 370.761719 C 283.710938 370.761719 304.738281 370.761719 322.546875 362.054688 C 341.839844 352.625 352.847656 335.78125 355.261719 311.988281 C 358.363281 281.441406 339.765625 249.007812 323.355469 220.394531 C 312.753906 201.910156 302.738281 184.445312 299.480469 169.558594 "/>
</g>
<path style=" stroke:none;fill-rule:nonzero;fill:rgb(21.569824%,52.159119%,56.079102%);fill-opacity:1;" d="M 281.105469 270.183594 C 272.324219 266.554688 272.324219 265.152344 272.324219 263.796875 C 272.324219 261.636719 274.253906 260.398438 277.613281 260.398438 C 282.636719 260.398438 285.679688 262.140625 287.144531 262.972656 L 291.914062 265.707031 L 297.632812 250.65625 L 294.210938 248.652344 C 291.203125 246.890625 287.925781 245.730469 284.285156 245.144531 L 284.285156 235.59375 L 269.058594 235.59375 L 269.058594 246.109375 C 260.40625 248.964844 254.835938 256.140625 254.835938 264.925781 C 254.835938 276.722656 264.199219 281.976562 273.304688 285.539062 C 281.015625 288.664062 281.015625 290.992188 281.015625 292.386719 C 281.015625 295.726562 277.507812 296.914062 274.503906 296.914062 C 270.703125 296.914062 266.609375 295.699219 263.550781 293.660156 L 258.550781 290.324219 L 253.070312 305.617188 L 255.953125 307.679688 C 259.117188 309.9375 263.636719 311.585938 268.398438 312.300781 L 268.398438 322.1875 L 283.722656 322.1875 L 283.722656 311.390625 C 292.765625 308.445312 298.601562 300.929688 298.601562 291.730469 C 298.601562 278.949219 289.238281 273.496094 281.105469 270.183594 "/>
<path style=" stroke:none;fill-rule:nonzero;fill:rgb(21.569824%,52.159119%,56.079102%);fill-opacity:1;" d="M 149.253906 86.707031 L 141.398438 86.707031 L 141.398438 108.890625 L 149.253906 108.890625 L 149.253906 86.707031 "/>
<path style=" stroke:none;fill-rule:nonzero;fill:rgb(21.569824%,52.159119%,56.079102%);fill-opacity:1;" d="M 108.933594 118.019531 L 97.828125 98.808594 L 91.023438 102.730469 L 102.132812 121.941406 L 108.933594 118.019531 "/>
<path style=" stroke:none;fill-rule:nonzero;fill:rgb(21.569824%,52.159119%,56.079102%);fill-opacity:1;" d="M 78.585938 146.058594 L 59.347656 134.964844 L 55.421875 141.757812 L 74.660156 152.851562 L 78.585938 146.058594 "/>
<path style=" stroke:none;fill-rule:nonzero;fill:rgb(21.569824%,52.159119%,56.079102%);fill-opacity:1;" d="M 66.34375 185.496094 L 44.128906 185.496094 L 44.128906 193.339844 L 66.34375 193.339844 L 66.34375 185.496094 "/>
<path style=" stroke:none;fill-rule:nonzero;fill:rgb(21.569824%,52.159119%,56.079102%);fill-opacity:1;" d="M 56.246094 236.855469 L 60.171875 243.648438 L 79.410156 232.554688 L 75.480469 225.761719 L 56.246094 236.855469 "/>
<path style=" stroke:none;fill-rule:nonzero;fill:rgb(21.569824%,52.159119%,56.079102%);fill-opacity:1;" d="M 92.449219 275.285156 L 99.25 279.207031 L 110.359375 259.992188 L 103.554688 256.070312 L 92.449219 275.285156 "/>
<path style=" stroke:none;fill-rule:nonzero;fill:rgb(21.569824%,52.159119%,56.079102%);fill-opacity:1;" d="M 143.042969 290.488281 L 150.898438 290.488281 L 150.898438 268.300781 L 143.042969 268.300781 L 143.042969 290.488281 "/>
<path style=" stroke:none;fill-rule:nonzero;fill:rgb(21.569824%,52.159119%,56.079102%);fill-opacity:1;" d="M 183.363281 259.171875 L 194.46875 278.386719 L 201.269531 274.460938 L 190.164062 255.25 L 183.363281 259.171875 "/>
<path style=" stroke:none;fill-rule:nonzero;fill:rgb(21.569824%,52.159119%,56.079102%);fill-opacity:1;" d="M 236.050781 140.335938 L 232.125 133.542969 L 212.886719 144.636719 L 216.8125 151.429688 L 236.050781 140.335938 "/>
<path style=" stroke:none;fill-rule:nonzero;fill:rgb(21.569824%,52.159119%,56.079102%);fill-opacity:1;" d="M 199.847656 101.90625 L 193.042969 97.984375 L 181.9375 117.199219 L 188.738281 121.121094 L 199.847656 101.90625 "/>
<path style=" stroke:none;fill-rule:nonzero;fill:rgb(21.569824%,52.159119%,56.079102%);fill-opacity:1;" d="M 165.898438 181.289062 C 164.65625 177.777344 162.636719 174.554688 159.921875 171.84375 C 157.207031 169.132812 153.984375 167.113281 150.464844 165.875 L 194.738281 137.070312 Z M 154.367188 202.082031 C 151.066406 205.378906 146.675781 207.195312 142.003906 207.195312 C 137.335938 207.195312 132.945312 205.378906 129.644531 202.082031 C 122.828125 195.273438 122.828125 184.199219 129.644531 177.390625 C 132.945312 174.09375 137.335938 172.277344 142.003906 172.277344 C 146.675781 172.277344 151.066406 174.09375 154.367188 177.390625 C 157.667969 180.6875 159.488281 185.074219 159.488281 189.734375 C 159.488281 194.398438 157.667969 198.785156 154.367188 202.082031 Z M 193.328125 128.625 L 137.726562 164.796875 C 132.585938 165.664062 127.851562 168.085938 124.089844 171.84375 C 114.210938 181.710938 114.210938 197.761719 124.089844 207.628906 C 128.875 212.40625 135.238281 215.039062 142.003906 215.039062 C 148.773438 215.039062 155.136719 212.40625 159.921875 207.628906 C 163.679688 203.875 166.105469 199.140625 166.976562 194.007812 L 203.195312 138.480469 C 205.050781 135.628906 204.667969 131.960938 202.257812 129.558594 C 199.855469 127.152344 196.179688 126.769531 193.328125 128.625 "/>
</g>
</svg>
