<?xml version="1.0" encoding="UTF-8"?>
<svg xmlns="http://www.w3.org/2000/svg" xmlns:xlink="http://www.w3.org/1999/xlink" width="375pt" height="374.999991pt" viewBox="0 0 375 374.999991" version="1.2">
<defs>
<clipPath id="clip1">
  <path d="M 60.894531 4.011719 L 314.394531 4.011719 L 314.394531 370.761719 L 60.894531 370.761719 Z M 60.894531 4.011719 "/>
</clipPath>
</defs>
<g id="surface1">
<g clip-path="url(#clip1)" clip-rule="nonzero">
<path style=" stroke:none;fill-rule:nonzero;fill:rgb(21.569824%,52.159119%,56.079102%);fill-opacity:1;" d="M 301.664062 358.117188 L 73.625 358.117188 L 73.625 339.144531 L 295.277344 339.144531 C 295.277344 339.144531 295.304688 339.144531 295.328125 339.144531 C 295.378906 339.144531 295.402344 339.144531 295.453125 339.144531 L 301.664062 339.144531 Z M 86.292969 324.648438 C 86.292969 316.867188 90.96875 309.949219 98.242188 307.035156 L 112.84375 301.207031 L 262.320312 301.207031 L 276.523438 307.503906 C 282.5625 310.195312 286.816406 315.925781 287.65625 322.496094 L 288.152344 326.5 L 86.292969 326.5 Z M 149.636719 208.035156 L 149.636719 143.125 L 155.972656 143.125 C 159.460938 143.125 162.304688 140.285156 162.304688 136.800781 C 162.304688 133.316406 159.460938 130.476562 155.972656 130.476562 L 143.300781 130.476562 L 143.300781 117.832031 L 155.972656 117.832031 C 159.460938 117.832031 162.304688 114.992188 162.304688 111.507812 C 162.304688 108.023438 159.460938 105.183594 155.972656 105.183594 L 138.453125 105.183594 L 121.453125 96.6875 C 119.300781 95.625 117.964844 93.453125 117.964844 91.054688 L 117.964844 16.660156 L 136.96875 16.660156 L 136.96875 48.273438 C 136.96875 51.757812 139.8125 54.597656 143.300781 54.597656 L 168.640625 54.597656 C 172.128906 54.597656 174.972656 51.757812 174.972656 48.273438 L 174.972656 16.660156 L 200.3125 16.660156 L 200.3125 48.273438 C 200.3125 51.757812 203.15625 54.597656 206.648438 54.597656 L 231.984375 54.597656 C 235.472656 54.597656 238.320312 51.757812 238.320312 48.273438 L 238.320312 16.660156 L 257.320312 16.660156 L 257.320312 91.054688 C 257.320312 93.453125 255.984375 95.625 253.808594 96.6875 L 236.835938 105.183594 L 187.644531 105.183594 C 184.15625 105.183594 181.308594 108.023438 181.308594 111.507812 C 181.308594 114.992188 184.15625 117.832031 187.644531 117.832031 L 231.984375 117.832031 L 231.984375 130.476562 L 187.644531 130.476562 C 184.15625 130.476562 181.308594 133.316406 181.308594 136.800781 C 181.308594 140.285156 184.15625 143.125 187.644531 143.125 L 225.648438 143.125 L 225.648438 208.035156 C 225.648438 228.636719 233.566406 248.296875 247.226562 263.265625 L 181.308594 263.265625 C 177.820312 263.265625 174.972656 266.105469 174.972656 269.589844 C 174.972656 273.074219 177.820312 275.914062 181.308594 275.914062 L 257.320312 275.914062 L 257.320312 288.558594 L 117.964844 288.558594 L 117.964844 272.75 C 137.859375 257.265625 149.636719 233.328125 149.636719 208.035156 Z M 301.664062 326.5 L 300.921875 326.5 L 300.226562 320.917969 C 298.84375 310 291.742188 300.441406 281.671875 295.945312 L 269.992188 290.78125 L 269.992188 269.589844 C 269.992188 266.601562 267.9375 264.847656 267.34375 264.453125 C 249.15625 251.460938 238.320312 230.339844 238.320312 208.035156 L 238.320312 143.125 C 241.808594 143.125 244.652344 140.285156 244.652344 136.800781 L 244.652344 115.410156 L 259.476562 108.023438 C 265.957031 104.765625 269.992188 98.269531 269.992188 91.054688 L 269.992188 10.335938 C 269.992188 6.851562 267.144531 4.011719 263.65625 4.011719 L 231.984375 4.011719 C 228.496094 4.011719 225.648438 6.851562 225.648438 10.335938 L 225.648438 41.953125 L 212.980469 41.953125 L 212.980469 10.335938 C 212.980469 6.851562 210.136719 4.011719 206.648438 4.011719 L 168.640625 4.011719 C 165.152344 4.011719 162.304688 6.851562 162.304688 10.335938 L 162.304688 41.953125 L 149.636719 41.953125 L 149.636719 10.335938 C 149.636719 6.851562 146.792969 4.011719 143.300781 4.011719 L 111.628906 4.011719 C 108.140625 4.011719 105.296875 6.851562 105.296875 10.335938 L 105.296875 91.054688 C 105.296875 98.269531 109.328125 104.765625 115.785156 108.023438 L 130.632812 115.410156 L 130.632812 136.800781 C 130.632812 140.285156 133.480469 143.125 136.96875 143.125 L 136.96875 208.035156 C 136.96875 230.339844 126.105469 251.460938 107.941406 264.453125 C 106.285156 265.636719 105.296875 267.539062 105.296875 269.589844 L 105.296875 290.609375 L 93.515625 295.300781 C 81.441406 300.144531 73.625 311.652344 73.625 324.648438 L 73.625 326.5 C 66.644531 326.5 60.953125 332.15625 60.953125 339.144531 L 60.953125 358.117188 C 60.953125 365.082031 66.644531 370.761719 73.625 370.761719 L 301.664062 370.761719 C 308.640625 370.761719 314.332031 365.082031 314.332031 358.117188 L 314.332031 339.144531 C 314.332031 332.15625 308.640625 326.5 301.664062 326.5 "/>
</g>
</g>
</svg>
