<?xml version="1.0" encoding="UTF-8"?>
<svg xmlns="http://www.w3.org/2000/svg" xmlns:xlink="http://www.w3.org/1999/xlink" width="375pt" height="374.999991pt" viewBox="0 0 375 374.999991" version="1.2">
<defs>
<clipPath id="clip1">
  <path d="M 93 14.5625 L 127 14.5625 L 127 66 L 93 66 Z M 93 14.5625 "/>
</clipPath>
<clipPath id="clip2">
  <path d="M 4.011719 171 L 60 171 L 60 178 L 4.011719 178 Z M 4.011719 171 "/>
</clipPath>
<clipPath id="clip3">
  <path d="M 315 171.160156 L 370.367188 171.160156 L 370.367188 177.804688 L 315 177.804688 Z M 315 171.160156 "/>
</clipPath>
<clipPath id="clip4">
  <path d="M 248 14.5625 L 282 14.5625 L 282 66 L 248 66 Z M 248 14.5625 "/>
</clipPath>
<clipPath id="clip5">
  <path d="M 152 340.097656 L 222.683594 340.097656 L 222.683594 360.265625 L 152 360.265625 Z M 152 340.097656 "/>
</clipPath>
</defs>
<g id="surface1">
<path style=" stroke:none;fill-rule:nonzero;fill:rgb(21.569824%,52.159119%,56.079102%);fill-opacity:1;" d="M 187.410156 204.335938 C 176.335938 204.335938 167.359375 195.355469 167.359375 184.277344 C 167.359375 173.203125 176.335938 164.21875 187.410156 164.21875 C 198.484375 164.21875 207.460938 173.203125 207.460938 184.277344 C 207.460938 195.355469 198.484375 204.335938 187.410156 204.335938 Z M 222.589844 163.4375 L 231.464844 151.488281 L 220.1875 140.214844 L 208.242188 149.089844 C 204.949219 147.132812 201.359375 145.625 197.550781 144.648438 L 195.382812 129.933594 L 179.4375 129.933594 L 177.265625 144.648438 C 173.460938 145.625 169.871094 147.132812 166.578125 149.089844 L 154.632812 140.214844 L 143.355469 151.488281 L 152.230469 163.4375 C 150.277344 166.738281 148.765625 170.328125 147.792969 174.132812 L 133.078125 176.304688 L 133.078125 192.253906 L 147.792969 194.425781 C 148.765625 198.230469 150.277344 201.824219 152.230469 205.121094 L 143.355469 217.070312 L 154.632812 228.347656 L 166.578125 219.46875 C 169.871094 221.425781 173.460938 222.9375 177.265625 223.910156 L 179.4375 238.625 L 195.382812 238.625 L 197.550781 223.910156 C 201.359375 222.9375 204.949219 221.425781 208.242188 219.46875 L 220.1875 228.347656 L 231.464844 217.070312 L 222.589844 205.121094 C 224.542969 201.824219 226.054688 198.230469 227.027344 194.425781 L 241.738281 192.253906 L 241.738281 176.304688 L 227.027344 174.132812 C 226.054688 170.328125 224.542969 166.738281 222.589844 163.4375 "/>
<path style=" stroke:none;fill-rule:nonzero;fill:rgb(21.569824%,52.159119%,56.079102%);fill-opacity:1;" d="M 255.976562 219.910156 C 244.96875 236.070312 229.652344 259.933594 218.4375 282.851562 L 156.378906 282.851562 C 145.167969 259.9375 129.851562 236.074219 118.84375 219.910156 C 101.027344 193.753906 98.703125 161.039062 112.625 132.402344 C 125.800781 105.300781 151.285156 87.925781 180.792969 85.929688 C 185.179688 85.636719 189.640625 85.636719 194.023438 85.929688 C 223.535156 87.925781 249.019531 105.300781 262.195312 132.402344 C 276.117188 161.039062 273.792969 193.753906 255.976562 219.910156 Z M 194.445312 79.691406 C 189.78125 79.378906 185.039062 79.378906 180.371094 79.691406 C 148.597656 81.84375 121.171875 100.523438 107.003906 129.667969 C 92.3125 159.886719 94.871094 195.820312 113.675781 223.429688 C 124.851562 239.832031 140.5 264.234375 151.609375 287.332031 L 152.460938 289.101562 L 222.355469 289.101562 L 223.210938 287.332031 C 234.320312 264.230469 249.96875 239.832031 261.144531 223.429688 C 279.949219 195.820312 282.507812 159.886719 267.816406 129.667969 C 253.648438 100.523438 226.21875 81.84375 194.445312 79.691406 "/>
<path style=" stroke:none;fill-rule:nonzero;fill:rgb(21.569824%,52.159119%,56.079102%);fill-opacity:1;" d="M 190.535156 22.300781 L 184.285156 22.300781 L 184.285156 46.855469 L 190.535156 46.855469 L 190.535156 22.300781 "/>
<g clip-path="url(#clip1)" clip-rule="nonzero">
<path style=" stroke:none;fill-rule:nonzero;fill:rgb(21.569824%,52.159119%,56.079102%);fill-opacity:1;" d="M 126.253906 62.410156 L 98.640625 14.5625 L 93.222656 17.6875 L 120.839844 65.535156 L 126.253906 62.410156 "/>
</g>
<g clip-path="url(#clip2)" clip-rule="nonzero">
<path style=" stroke:none;fill-rule:nonzero;fill:rgb(21.569824%,52.159119%,56.079102%);fill-opacity:1;" d="M 59.683594 171.488281 L 4.453125 171.488281 L 4.453125 177.738281 L 59.683594 177.738281 L 59.683594 171.488281 "/>
</g>
<g clip-path="url(#clip3)" clip-rule="nonzero">
<path style=" stroke:none;fill-rule:nonzero;fill:rgb(21.569824%,52.159119%,56.079102%);fill-opacity:1;" d="M 315.132812 171.488281 L 315.132812 177.738281 L 370.367188 177.738281 L 370.367188 171.488281 L 315.132812 171.488281 "/>
</g>
<g clip-path="url(#clip4)" clip-rule="nonzero">
<path style=" stroke:none;fill-rule:nonzero;fill:rgb(21.569824%,52.159119%,56.079102%);fill-opacity:1;" d="M 248.566406 62.410156 L 253.980469 65.535156 L 281.59375 17.6875 L 276.179688 14.5625 L 248.566406 62.410156 "/>
</g>
<path style=" stroke:none;fill-rule:nonzero;fill:rgb(21.569824%,52.159119%,56.079102%);fill-opacity:1;" d="M 53.972656 101.164062 L 75.234375 113.441406 L 78.359375 108.023438 L 57.101562 95.75 L 53.972656 101.164062 "/>
<path style=" stroke:none;fill-rule:nonzero;fill:rgb(21.569824%,52.159119%,56.079102%);fill-opacity:1;" d="M 296.457031 241.199219 L 317.71875 253.476562 L 320.84375 248.0625 L 299.585938 235.785156 L 296.457031 241.199219 "/>
<path style=" stroke:none;fill-rule:nonzero;fill:rgb(21.569824%,52.159119%,56.079102%);fill-opacity:1;" d="M 53.972656 248.0625 L 57.101562 253.476562 L 78.359375 241.199219 L 75.234375 235.785156 L 53.972656 248.0625 "/>
<path style=" stroke:none;fill-rule:nonzero;fill:rgb(21.569824%,52.159119%,56.079102%);fill-opacity:1;" d="M 320.84375 101.164062 L 317.71875 95.75 L 296.457031 108.023438 L 299.585938 113.441406 L 320.84375 101.164062 "/>
<g clip-path="url(#clip5)" clip-rule="nonzero">
<path style=" stroke:none;fill-rule:nonzero;fill:rgb(21.569824%,52.159119%,56.079102%);fill-opacity:1;" d="M 158.710938 351.84375 L 169.925781 351.84375 L 169.925781 354.015625 C 169.925781 357.464844 172.726562 360.265625 176.179688 360.265625 L 198.640625 360.265625 C 202.089844 360.265625 204.890625 357.464844 204.890625 354.015625 L 204.890625 351.84375 L 216.109375 351.84375 C 219.558594 351.84375 222.355469 349.039062 222.355469 345.585938 L 222.355469 340.125 L 152.460938 345.585938 C 152.460938 349.039062 155.261719 351.84375 158.710938 351.84375 "/>
</g>
<path style=" stroke:none;fill-rule:nonzero;fill:rgb(21.569824%,52.159119%,56.079102%);fill-opacity:1;" d="M 152.460938 308.707031 L 222.355469 303.238281 L 222.355469 296.992188 L 152.460938 296.992188 L 152.460938 308.707031 "/>
<path style=" stroke:none;fill-rule:nonzero;fill:rgb(21.569824%,52.159119%,56.079102%);fill-opacity:1;" d="M 152.460938 339.339844 L 222.355469 333.867188 L 222.355469 324.808594 L 152.460938 330.277344 L 152.460938 339.339844 "/>
<path style=" stroke:none;fill-rule:nonzero;fill:rgb(21.569824%,52.159119%,56.079102%);fill-opacity:1;" d="M 152.460938 324.027344 L 222.355469 318.554688 L 222.355469 309.488281 L 152.460938 314.960938 L 152.460938 324.027344 "/>
</g>
</svg>
