<?xml version="1.0" encoding="UTF-8"?>
<svg xmlns="http://www.w3.org/2000/svg" xmlns:xlink="http://www.w3.org/1999/xlink" width="375pt" height="374.999991pt" viewBox="0 0 375 374.999991" version="1.2">
<defs>
<clipPath id="clip1">
  <path d="M 20.753906 4.011719 L 354.503906 4.011719 L 354.503906 192 L 20.753906 192 Z M 20.753906 4.011719 "/>
</clipPath>
<clipPath id="clip2">
  <path d="M 119 325 L 192 325 L 192 370.761719 L 119 370.761719 Z M 119 325 "/>
</clipPath>
</defs>
<g id="surface1">
<g clip-path="url(#clip1)" clip-rule="nonzero">
<path style=" stroke:none;fill-rule:nonzero;fill:rgb(21.569824%,52.159119%,56.079102%);fill-opacity:1;" d="M 305.671875 70.15625 C 275.066406 39.59375 234.671875 22.367188 191.550781 21.390625 L 191.550781 7.984375 C 191.550781 5.84375 189.8125 4.105469 187.667969 4.105469 C 185.527344 4.105469 183.789062 5.84375 183.789062 7.984375 L 183.789062 21.390625 C 140.664062 22.367188 100.269531 39.59375 69.667969 70.15625 C 38.148438 101.628906 20.789062 143.476562 20.789062 187.992188 C 20.789062 190.132812 22.527344 191.867188 24.671875 191.867188 C 26.8125 191.867188 28.550781 190.132812 28.550781 187.992188 C 28.550781 167.898438 45.089844 151.554688 65.421875 151.554688 C 85.75 151.554688 102.289062 167.898438 102.289062 187.992188 C 102.289062 190.132812 104.027344 191.867188 106.167969 191.867188 C 108.3125 191.867188 110.050781 190.132812 110.050781 187.992188 C 110.050781 167.898438 126.589844 151.554688 146.917969 151.554688 C 167.25 151.554688 183.789062 167.898438 183.789062 187.992188 C 183.789062 190.132812 185.527344 191.867188 187.667969 191.867188 C 189.8125 191.867188 191.550781 190.132812 191.550781 187.992188 C 191.550781 167.898438 208.089844 151.554688 228.417969 151.554688 C 248.746094 151.554688 265.285156 167.898438 265.285156 187.992188 C 265.285156 190.132812 267.023438 191.867188 269.167969 191.867188 C 271.3125 191.867188 273.050781 190.132812 273.050781 187.992188 C 273.050781 167.898438 289.589844 151.554688 309.917969 151.554688 C 330.25 151.554688 346.785156 167.898438 346.785156 187.992188 C 346.785156 190.132812 348.523438 191.867188 350.667969 191.867188 C 352.8125 191.867188 354.550781 190.132812 354.550781 187.992188 C 354.550781 143.476562 337.191406 101.628906 305.671875 70.15625 Z M 309.917969 143.800781 C 291.777344 143.800781 276.140625 154.578125 269.167969 170 C 262.195312 154.578125 246.558594 143.800781 228.417969 143.800781 C 210.277344 143.800781 194.644531 154.578125 187.667969 170 C 180.695312 154.578125 165.058594 143.800781 146.917969 143.800781 C 128.78125 143.800781 113.140625 154.578125 106.167969 170 C 99.195312 154.578125 83.5625 143.800781 65.421875 143.800781 C 51.613281 143.800781 39.25 150.046875 31.054688 159.828125 C 44.40625 85.597656 109.554688 29.097656 187.667969 29.097656 C 265.785156 29.097656 330.933594 85.597656 344.28125 159.828125 C 336.089844 150.042969 323.726562 143.800781 309.917969 143.800781 Z M 309.917969 143.800781 "/>
</g>
<g clip-path="url(#clip2)" clip-rule="nonzero">
<path style=" stroke:none;fill-rule:nonzero;fill:rgb(21.569824%,52.159119%,56.079102%);fill-opacity:1;" d="M 187.667969 325.769531 C 185.527344 325.769531 183.789062 327.503906 183.789062 329.644531 L 183.789062 334.746094 C 183.789062 350.277344 171.132812 362.914062 155.578125 362.914062 C 140.023438 362.914062 127.371094 350.277344 127.371094 334.746094 C 127.371094 332.605469 125.632812 330.871094 123.488281 330.871094 C 121.34375 330.871094 119.605469 332.605469 119.605469 334.746094 C 119.605469 354.554688 135.746094 370.667969 155.578125 370.667969 C 175.414062 370.667969 191.546875 354.554688 191.550781 334.75 L 191.550781 329.644531 C 191.550781 327.503906 189.8125 325.769531 187.667969 325.769531 Z M 187.667969 325.769531 "/>
</g>
<path style=" stroke:none;fill-rule:nonzero;fill:rgb(21.569824%,52.159119%,56.079102%);fill-opacity:1;" d="M 183.574219 233.445312 L 205.929688 233.445312 C 208.074219 233.445312 209.8125 231.710938 209.8125 229.570312 C 209.8125 227.425781 208.074219 225.691406 205.929688 225.691406 L 191.546875 225.691406 L 191.546875 213.664062 C 191.546875 211.523438 189.808594 209.785156 187.664062 209.785156 C 185.523438 209.785156 183.785156 211.523438 183.785156 213.664062 L 183.785156 225.691406 L 183.574219 225.691406 C 173.617188 225.691406 165.515625 233.785156 165.515625 243.730469 C 165.515625 253.671875 173.617188 261.765625 183.574219 261.765625 L 191.757812 261.765625 C 197.429688 261.765625 202.046875 266.375 202.046875 272.046875 C 202.046875 277.71875 197.429688 282.328125 191.757812 282.328125 L 187.703125 282.328125 C 187.6875 282.328125 187.675781 282.324219 187.664062 282.324219 C 187.652344 282.324219 187.640625 282.328125 187.628906 282.328125 L 169.394531 282.328125 C 167.253906 282.328125 165.515625 284.0625 165.515625 286.207031 C 165.515625 288.347656 167.253906 290.082031 169.394531 290.082031 L 183.785156 290.082031 L 183.785156 302.109375 C 183.785156 304.253906 185.523438 305.988281 187.664062 305.988281 C 189.808594 305.988281 191.546875 304.253906 191.546875 302.109375 L 191.546875 290.082031 L 191.757812 290.082031 C 201.710938 290.082031 209.8125 281.992188 209.8125 272.046875 C 209.8125 262.101562 201.710938 254.011719 191.757812 254.011719 L 183.574219 254.011719 C 177.898438 254.011719 173.277344 249.398438 173.277344 243.730469 C 173.277344 238.058594 177.898438 233.445312 183.574219 233.445312 Z M 183.574219 233.445312 "/>
<path style=" stroke:none;fill-rule:nonzero;fill:rgb(21.569824%,52.159119%,56.079102%);fill-opacity:1;" d="M 187.667969 193.875 C 152.324219 193.875 123.566406 222.589844 123.566406 257.886719 C 123.566406 293.183594 152.324219 321.898438 187.667969 321.898438 C 223.015625 321.898438 251.769531 293.183594 251.769531 257.886719 C 251.769531 222.589844 223.015625 193.875 187.667969 193.875 Z M 187.667969 314.144531 C 156.605469 314.144531 131.332031 288.90625 131.332031 257.886719 C 131.332031 226.867188 156.605469 201.628906 187.667969 201.628906 C 218.734375 201.628906 244.007812 226.867188 244.007812 257.886719 C 244.007812 288.90625 218.734375 314.144531 187.667969 314.144531 Z M 187.667969 314.144531 "/>
<path style=" stroke:none;fill-rule:nonzero;fill:rgb(21.569824%,52.159119%,56.079102%);fill-opacity:1;" d="M 115.25 220.609375 C 115.863281 220.960938 116.53125 221.128906 117.1875 221.128906 C 118.53125 221.128906 119.835938 220.433594 120.554688 219.191406 C 121.625 217.335938 120.988281 214.964844 119.132812 213.894531 L 105.632812 206.113281 C 103.773438 205.039062 101.402344 205.675781 100.328125 207.53125 C 99.257812 209.386719 99.894531 211.753906 101.75 212.824219 Z M 115.25 220.609375 "/>
<path style=" stroke:none;fill-rule:nonzero;fill:rgb(21.569824%,52.159119%,56.079102%);fill-opacity:1;" d="M 110.171875 257.886719 C 110.171875 255.746094 108.433594 254.011719 106.289062 254.011719 L 90.699219 254.011719 C 88.554688 254.011719 86.816406 255.746094 86.816406 257.886719 C 86.816406 260.027344 88.554688 261.761719 90.699219 261.761719 L 106.289062 261.761719 C 108.433594 261.761719 110.171875 260.027344 110.171875 257.886719 Z M 110.171875 257.886719 "/>
<path style=" stroke:none;fill-rule:nonzero;fill:rgb(21.569824%,52.159119%,56.079102%);fill-opacity:1;" d="M 120.554688 296.582031 C 119.480469 294.726562 117.109375 294.089844 115.25 295.164062 L 101.75 302.945312 C 99.894531 304.015625 99.257812 306.386719 100.328125 308.242188 C 101.046875 309.484375 102.351562 310.179688 103.695312 310.179688 C 104.351562 310.179688 105.019531 310.011719 105.632812 309.660156 L 119.132812 301.875 C 120.988281 300.804688 121.625 298.4375 120.554688 296.582031 Z M 120.554688 296.582031 "/>
<path style=" stroke:none;fill-rule:nonzero;fill:rgb(21.569824%,52.159119%,56.079102%);fill-opacity:1;" d="M 273.589844 302.949219 L 260.085938 295.164062 C 258.230469 294.09375 255.855469 294.726562 254.785156 296.582031 C 253.710938 298.4375 254.347656 300.804688 256.207031 301.875 L 269.707031 309.660156 C 270.320312 310.015625 270.984375 310.183594 271.644531 310.183594 C 272.988281 310.183594 274.292969 309.488281 275.011719 308.242188 C 276.082031 306.390625 275.445312 304.019531 273.589844 302.949219 Z M 273.589844 302.949219 "/>
<path style=" stroke:none;fill-rule:nonzero;fill:rgb(21.569824%,52.159119%,56.079102%);fill-opacity:1;" d="M 284.640625 254.011719 L 269.046875 254.011719 C 266.90625 254.011719 265.167969 255.746094 265.167969 257.886719 C 265.167969 260.027344 266.902344 261.761719 269.046875 261.761719 L 284.640625 261.761719 C 286.785156 261.761719 288.523438 260.027344 288.523438 257.886719 C 288.523438 255.746094 286.785156 254.011719 284.640625 254.011719 Z M 284.640625 254.011719 "/>
<path style=" stroke:none;fill-rule:nonzero;fill:rgb(21.569824%,52.159119%,56.079102%);fill-opacity:1;" d="M 258.148438 221.128906 C 258.808594 221.128906 259.476562 220.960938 260.085938 220.609375 L 273.589844 212.824219 C 275.449219 211.757812 276.082031 209.386719 275.011719 207.53125 C 273.941406 205.679688 271.566406 205.039062 269.710938 206.113281 L 256.207031 213.894531 C 254.347656 214.964844 253.710938 217.335938 254.785156 219.191406 C 255.503906 220.433594 256.808594 221.128906 258.148438 221.128906 Z M 258.148438 221.128906 "/>
</g>
</svg>
