<?xml version="1.0" encoding="UTF-8"?>
<svg xmlns="http://www.w3.org/2000/svg" xmlns:xlink="http://www.w3.org/1999/xlink" width="375pt" height="374.999991pt" viewBox="0 0 375 374.999991" version="1.2">
<defs>
<clipPath id="clip1">
  <path d="M 26.488281 5 L 348.238281 5 L 348.238281 370.761719 L 26.488281 370.761719 Z M 26.488281 5 "/>
</clipPath>
</defs>
<g id="surface1">
<g clip-path="url(#clip1)" clip-rule="nonzero">
<path style=" stroke:none;fill-rule:nonzero;fill:rgb(21.569824%,52.159119%,56.079102%);fill-opacity:1;" d="M 109.84375 334.269531 L 182.933594 369.742188 C 184.332031 370.421875 185.84375 370.761719 187.363281 370.761719 C 188.878906 370.761719 190.390625 370.421875 191.792969 369.742188 L 264.878906 334.269531 C 315.476562 309.710938 348.171875 257.496094 348.171875 201.242188 L 348.171875 34.121094 C 348.171875 22.085938 338.402344 12.292969 326.394531 12.292969 C 322.382812 12.292969 318.441406 13.433594 314.992188 15.589844 C 298.785156 25.726562 281.257812 31.015625 262.894531 31.304688 L 261.335938 31.316406 C 231.667969 31.3125 209.210938 17.769531 198.46875 9.695312 C 190.898438 4.003906 179.785156 4.074219 172.277344 9.859375 C 162.132812 17.664062 140.789062 30.835938 111.765625 31.304688 L 110.351562 31.3125 C 92.867188 31.3125 75.894531 26.136719 59.902344 15.925781 C 56.414062 13.699219 52.414062 12.523438 48.335938 12.523438 C 36.324219 12.523438 26.550781 22.316406 26.550781 34.351562 L 26.550781 201.242188 C 26.550781 257.496094 59.246094 309.710938 109.84375 334.269531 Z M 46.847656 34.351562 C 46.847656 33.183594 47.9375 32.824219 48.332031 32.824219 C 48.476562 32.824219 48.679688 32.847656 48.980469 33.039062 C 68.015625 45.191406 89.234375 51.613281 110.351562 51.613281 L 112.09375 51.597656 C 146.964844 51.035156 172.523438 35.285156 184.652344 25.945312 C 185.378906 25.390625 185.871094 25.621094 186.273438 25.925781 C 199.042969 35.519531 225.773438 51.613281 261.332031 51.617188 L 263.210938 51.601562 C 285.015625 51.257812 306.640625 44.757812 325.75 32.804688 C 326.046875 32.617188 326.246094 32.59375 326.394531 32.59375 C 326.789062 32.59375 327.875 32.957031 327.875 34.121094 L 327.875 201.242188 C 327.875 249.773438 299.667969 294.820312 256.015625 316.007812 L 187.359375 349.332031 L 118.703125 316.007812 C 75.050781 294.820312 46.84375 249.773438 46.84375 201.242188 L 46.84375 34.351562 Z M 46.847656 34.351562 "/>
</g>
<path style=" stroke:none;fill-rule:nonzero;fill:rgb(21.569824%,52.159119%,56.079102%);fill-opacity:1;" d="M 191.175781 232.226562 L 183.546875 232.226562 C 173.132812 232.226562 164.660156 223.75 164.660156 213.332031 C 164.660156 207.726562 160.113281 203.183594 154.511719 203.183594 C 148.90625 203.183594 144.363281 207.726562 144.363281 213.332031 C 144.363281 232.785156 158.617188 248.925781 177.214844 251.964844 L 177.214844 264.753906 C 177.214844 270.359375 181.757812 274.90625 187.363281 274.90625 C 192.964844 274.90625 197.507812 270.359375 197.507812 264.753906 L 197.507812 251.976562 C 205.554688 250.671875 212.976562 246.9375 218.847656 241.066406 C 226.273438 233.640625 230.359375 223.792969 230.359375 213.328125 C 230.359375 191.71875 212.78125 174.136719 191.175781 174.136719 L 183.546875 174.136719 C 173.132812 174.136719 164.660156 165.660156 164.660156 155.242188 C 164.660156 150.203125 166.636719 145.453125 170.226562 141.859375 C 173.777344 138.304688 178.507812 136.347656 183.546875 136.347656 L 191.175781 136.347656 C 201.589844 136.347656 210.0625 144.824219 210.0625 155.242188 C 210.0625 160.847656 214.605469 165.394531 220.210938 165.394531 C 225.816406 165.394531 230.359375 160.847656 230.359375 155.242188 C 230.359375 135.792969 216.105469 119.652344 197.507812 116.609375 L 197.507812 106.550781 C 197.507812 100.945312 192.964844 96.402344 187.359375 96.402344 C 181.757812 96.402344 177.210938 100.945312 177.210938 106.550781 L 177.210938 116.597656 C 169.167969 117.902344 161.746094 121.636719 155.875 127.507812 C 148.449219 134.933594 144.363281 144.78125 144.363281 155.246094 C 144.363281 176.855469 161.941406 194.4375 183.546875 194.4375 L 191.175781 194.4375 C 201.589844 194.4375 210.0625 202.914062 210.0625 213.332031 C 210.0625 218.371094 208.089844 223.121094 204.496094 226.714844 C 200.941406 230.265625 196.210938 232.226562 191.175781 232.226562 Z M 191.175781 232.226562 "/>
<path style=" stroke:none;fill-rule:nonzero;fill:rgb(21.569824%,52.159119%,56.079102%);fill-opacity:1;" d="M 187.363281 305.3125 C 253.324219 305.3125 306.992188 251.632812 306.992188 185.65625 C 306.992188 119.675781 253.328125 65.996094 187.363281 65.996094 C 121.398438 65.996094 67.730469 119.675781 67.730469 185.65625 C 67.730469 251.632812 121.398438 305.3125 187.363281 305.3125 Z M 187.363281 86.296875 C 242.136719 86.296875 286.695312 130.871094 286.695312 185.65625 C 286.695312 240.441406 242.136719 285.011719 187.363281 285.011719 C 132.589844 285.011719 88.027344 240.441406 88.027344 185.65625 C 88.027344 130.871094 132.585938 86.296875 187.363281 86.296875 Z M 187.363281 86.296875 "/>
</g>
</svg>
