<svg xmlns="http://www.w3.org/2000/svg" xmlns:xlink="http://www.w3.org/1999/xlink" width="500" zoomAndPan="magnify" viewBox="0 0 375 209.999996" height="280" preserveAspectRatio="xMidYMid meet" version="1.0"><defs><clipPath id="4fc2ddc1d5"><path d="M 158 138 L 168 138 L 168 149.429688 L 158 149.429688 Z M 158 138 " clip-rule="nonzero"/></clipPath><clipPath id="7531a875e5"><path d="M 316 138 L 324 138 L 324 149.429688 L 316 149.429688 Z M 316 138 " clip-rule="nonzero"/></clipPath><clipPath id="4b993dbceb"><path d="M 185 138 L 195 138 L 195 149.429688 L 185 149.429688 Z M 185 138 " clip-rule="nonzero"/></clipPath><clipPath id="4f6800eef2"><path d="M 287 138 L 297 138 L 297 149.429688 L 287 149.429688 Z M 287 138 " clip-rule="nonzero"/></clipPath><clipPath id="e785a4922b"><path d="M 262 138 L 270 138 L 270 149.429688 L 262 149.429688 Z M 262 138 " clip-rule="nonzero"/></clipPath><clipPath id="b79d0c4309"><path d="M 213 138 L 223 138 L 223 149.429688 L 213 149.429688 Z M 213 138 " clip-rule="nonzero"/></clipPath><clipPath id="6d353fa182"><path d="M 342 138 L 351 138 L 351 149.429688 L 342 149.429688 Z M 342 138 " clip-rule="nonzero"/></clipPath><clipPath id="8368559b77"><path d="M 240 138 L 244 138 L 244 149.429688 L 240 149.429688 Z M 240 138 " clip-rule="nonzero"/></clipPath><clipPath id="80dfa34997"><path d="M 6.535156 63 L 51 63 L 51 127 L 6.535156 127 Z M 6.535156 63 " clip-rule="nonzero"/></clipPath><clipPath id="c6bc33e207"><path d="M 56.578125 60.933594 L 73.75 60.933594 L 73.75 77.789062 L 56.578125 77.789062 Z M 56.578125 60.933594 " clip-rule="nonzero"/></clipPath><clipPath id="eeebf54090"><path d="M 73.515625 77.761719 L 72.109375 77.761719 C 71.925781 77.417969 71.335938 77.292969 71.039062 77.25 C 70.632812 77.195312 70.230469 77.121094 69.832031 77.03125 C 66.648438 76.285156 63.175781 74.496094 63.175781 74.496094 C 56.847656 71.632812 56.601562 66.589844 56.601562 66.589844 C 56.503906 63.765625 57.328125 61.902344 57.710938 61.195312 C 57.820312 61 58.035156 60.902344 58.25 60.949219 C 61.011719 61.589844 64.394531 62.527344 65.773438 62.921875 C 66.265625 63.054688 66.746094 63.238281 67.203125 63.460938 C 75.519531 67.589844 73.515625 77.761719 73.515625 77.761719 Z M 73.515625 77.761719 " clip-rule="nonzero"/></clipPath><clipPath id="2c9e31956b"><path d="M 73.515625 77.761719 L 72.109375 77.761719 C 71.925781 77.417969 71.335938 77.292969 71.039062 77.25 C 70.632812 77.195312 70.230469 77.121094 69.832031 77.03125 C 66.648438 76.285156 63.175781 74.496094 63.175781 74.496094 C 56.847656 71.632812 56.601562 66.589844 56.601562 66.589844 C 56.503906 63.765625 57.328125 61.902344 57.710938 61.195312 C 57.820312 61 58.035156 60.902344 58.25 60.949219 C 61.011719 61.589844 64.394531 62.527344 65.773438 62.921875 C 66.265625 63.054688 66.746094 63.238281 67.203125 63.460938 C 75.519531 67.589844 73.515625 77.761719 73.515625 77.761719 " clip-rule="nonzero"/></clipPath><linearGradient x1="-0.0277651" gradientTransform="matrix(8.792661, 19.812073, -19.748638, 8.820904, 60.793842, 59.709794)" y1="0" x2="1.00428" gradientUnits="userSpaceOnUse" y2="0" id="ea5d372bd5"><stop stop-opacity="1" stop-color="rgb(27.799988%, 74.499512%, 43.899536%)" offset="0"/><stop stop-opacity="1" stop-color="rgb(27.799988%, 74.499512%, 43.899536%)" offset="0.125"/><stop stop-opacity="1" stop-color="rgb(27.799988%, 74.499512%, 43.899536%)" offset="0.15625"/><stop stop-opacity="1" stop-color="rgb(27.799988%, 74.499512%, 43.899536%)" offset="0.171875"/><stop stop-opacity="1" stop-color="rgb(27.82135%, 74.508667%, 43.963623%)" offset="0.179688"/><stop stop-opacity="1" stop-color="rgb(27.893066%, 74.539185%, 44.171143%)" offset="0.1875"/><stop stop-opacity="1" stop-color="rgb(27.992249%, 74.580383%, 44.456482%)" offset="0.195312"/><stop stop-opacity="1" stop-color="rgb(28.091431%, 74.621582%, 44.741821%)" offset="0.203125"/><stop stop-opacity="1" stop-color="rgb(28.190613%, 74.664307%, 45.027161%)" offset="0.210937"/><stop stop-opacity="1" stop-color="rgb(28.289795%, 74.705505%, 45.310974%)" offset="0.21875"/><stop stop-opacity="1" stop-color="rgb(28.388977%, 74.746704%, 45.596313%)" offset="0.226563"/><stop stop-opacity="1" stop-color="rgb(28.486633%, 74.789429%, 45.881653%)" offset="0.234375"/><stop stop-opacity="1" stop-color="rgb(28.585815%, 74.830627%, 46.166992%)" offset="0.242188"/><stop stop-opacity="1" stop-color="rgb(28.684998%, 74.873352%, 46.452332%)" offset="0.25"/><stop stop-opacity="1" stop-color="rgb(28.78418%, 74.914551%, 46.736145%)" offset="0.257812"/><stop stop-opacity="1" stop-color="rgb(28.883362%, 74.95575%, 47.021484%)" offset="0.265625"/><stop stop-opacity="1" stop-color="rgb(28.982544%, 74.998474%, 47.306824%)" offset="0.273438"/><stop stop-opacity="1" stop-color="rgb(29.081726%, 75.039673%, 47.592163%)" offset="0.28125"/><stop stop-opacity="1" stop-color="rgb(29.180908%, 75.080872%, 47.877502%)" offset="0.289062"/><stop stop-opacity="1" stop-color="rgb(29.278564%, 75.123596%, 48.162842%)" offset="0.296875"/><stop stop-opacity="1" stop-color="rgb(29.377747%, 75.164795%, 48.446655%)" offset="0.304687"/><stop stop-opacity="1" stop-color="rgb(29.476929%, 75.205994%, 48.731995%)" offset="0.3125"/><stop stop-opacity="1" stop-color="rgb(29.576111%, 75.248718%, 49.017334%)" offset="0.320313"/><stop stop-opacity="1" stop-color="rgb(29.675293%, 75.289917%, 49.302673%)" offset="0.328125"/><stop stop-opacity="1" stop-color="rgb(29.774475%, 75.331116%, 49.588013%)" offset="0.335938"/><stop stop-opacity="1" stop-color="rgb(29.873657%, 75.37384%, 49.871826%)" offset="0.34375"/><stop stop-opacity="1" stop-color="rgb(29.972839%, 75.415039%, 50.157166%)" offset="0.351562"/><stop stop-opacity="1" stop-color="rgb(30.070496%, 75.457764%, 50.442505%)" offset="0.359375"/><stop stop-opacity="1" stop-color="rgb(30.169678%, 75.498962%, 50.727844%)" offset="0.367188"/><stop stop-opacity="1" stop-color="rgb(30.26886%, 75.540161%, 51.013184%)" offset="0.375"/><stop stop-opacity="1" stop-color="rgb(30.368042%, 75.582886%, 51.298523%)" offset="0.382812"/><stop stop-opacity="1" stop-color="rgb(30.467224%, 75.624084%, 51.582336%)" offset="0.390625"/><stop stop-opacity="1" stop-color="rgb(30.566406%, 75.665283%, 51.867676%)" offset="0.398438"/><stop stop-opacity="1" stop-color="rgb(30.665588%, 75.708008%, 52.153015%)" offset="0.40625"/><stop stop-opacity="1" stop-color="rgb(30.764771%, 75.749207%, 52.438354%)" offset="0.414062"/><stop stop-opacity="1" stop-color="rgb(30.862427%, 75.790405%, 52.723694%)" offset="0.421875"/><stop stop-opacity="1" stop-color="rgb(30.961609%, 75.83313%, 53.007507%)" offset="0.429687"/><stop stop-opacity="1" stop-color="rgb(31.060791%, 75.874329%, 53.292847%)" offset="0.4375"/><stop stop-opacity="1" stop-color="rgb(31.159973%, 75.915527%, 53.578186%)" offset="0.445313"/><stop stop-opacity="1" stop-color="rgb(31.259155%, 75.958252%, 53.863525%)" offset="0.453125"/><stop stop-opacity="1" stop-color="rgb(31.358337%, 75.999451%, 54.148865%)" offset="0.460938"/><stop stop-opacity="1" stop-color="rgb(31.45752%, 76.042175%, 54.434204%)" offset="0.46875"/><stop stop-opacity="1" stop-color="rgb(31.556702%, 76.083374%, 54.718018%)" offset="0.476562"/><stop stop-opacity="1" stop-color="rgb(31.655884%, 76.124573%, 55.003357%)" offset="0.484375"/><stop stop-opacity="1" stop-color="rgb(31.75354%, 76.167297%, 55.288696%)" offset="0.492188"/><stop stop-opacity="1" stop-color="rgb(31.852722%, 76.208496%, 55.574036%)" offset="0.5"/><stop stop-opacity="1" stop-color="rgb(31.951904%, 76.249695%, 55.859375%)" offset="0.507812"/><stop stop-opacity="1" stop-color="rgb(32.051086%, 76.292419%, 56.143188%)" offset="0.515625"/><stop stop-opacity="1" stop-color="rgb(32.150269%, 76.333618%, 56.428528%)" offset="0.523438"/><stop stop-opacity="1" stop-color="rgb(32.249451%, 76.374817%, 56.713867%)" offset="0.53125"/><stop stop-opacity="1" stop-color="rgb(32.348633%, 76.417542%, 56.999207%)" offset="0.539062"/><stop stop-opacity="1" stop-color="rgb(32.447815%, 76.45874%, 57.284546%)" offset="0.546875"/><stop stop-opacity="1" stop-color="rgb(32.545471%, 76.501465%, 57.569885%)" offset="0.554688"/><stop stop-opacity="1" stop-color="rgb(32.644653%, 76.542664%, 57.853699%)" offset="0.5625"/><stop stop-opacity="1" stop-color="rgb(32.743835%, 76.583862%, 58.139038%)" offset="0.570312"/><stop stop-opacity="1" stop-color="rgb(32.843018%, 76.626587%, 58.424377%)" offset="0.578125"/><stop stop-opacity="1" stop-color="rgb(32.9422%, 76.667786%, 58.709717%)" offset="0.585937"/><stop stop-opacity="1" stop-color="rgb(33.041382%, 76.708984%, 58.995056%)" offset="0.59375"/><stop stop-opacity="1" stop-color="rgb(33.140564%, 76.751709%, 59.27887%)" offset="0.601562"/><stop stop-opacity="1" stop-color="rgb(33.239746%, 76.792908%, 59.564209%)" offset="0.609375"/><stop stop-opacity="1" stop-color="rgb(33.337402%, 76.834106%, 59.849548%)" offset="0.617188"/><stop stop-opacity="1" stop-color="rgb(33.436584%, 76.876831%, 60.134888%)" offset="0.625"/><stop stop-opacity="1" stop-color="rgb(33.535767%, 76.91803%, 60.420227%)" offset="0.632812"/><stop stop-opacity="1" stop-color="rgb(33.634949%, 76.959229%, 60.705566%)" offset="0.640625"/><stop stop-opacity="1" stop-color="rgb(33.734131%, 77.001953%, 60.98938%)" offset="0.648438"/><stop stop-opacity="1" stop-color="rgb(33.833313%, 77.043152%, 61.274719%)" offset="0.65625"/><stop stop-opacity="1" stop-color="rgb(33.932495%, 77.085876%, 61.560059%)" offset="0.664063"/><stop stop-opacity="1" stop-color="rgb(34.031677%, 77.127075%, 61.845398%)" offset="0.671875"/><stop stop-opacity="1" stop-color="rgb(34.129333%, 77.168274%, 62.130737%)" offset="0.679688"/><stop stop-opacity="1" stop-color="rgb(34.228516%, 77.210999%, 62.414551%)" offset="0.6875"/><stop stop-opacity="1" stop-color="rgb(34.327698%, 77.252197%, 62.69989%)" offset="0.695312"/><stop stop-opacity="1" stop-color="rgb(34.42688%, 77.293396%, 62.985229%)" offset="0.703125"/><stop stop-opacity="1" stop-color="rgb(34.526062%, 77.336121%, 63.270569%)" offset="0.710938"/><stop stop-opacity="1" stop-color="rgb(34.625244%, 77.377319%, 63.555908%)" offset="0.71875"/><stop stop-opacity="1" stop-color="rgb(34.724426%, 77.418518%, 63.841248%)" offset="0.726562"/><stop stop-opacity="1" stop-color="rgb(34.823608%, 77.461243%, 64.125061%)" offset="0.734375"/><stop stop-opacity="1" stop-color="rgb(34.921265%, 77.502441%, 64.4104%)" offset="0.742188"/><stop stop-opacity="1" stop-color="rgb(35.020447%, 77.54364%, 64.69574%)" offset="0.75"/><stop stop-opacity="1" stop-color="rgb(35.119629%, 77.586365%, 64.981079%)" offset="0.757812"/><stop stop-opacity="1" stop-color="rgb(35.218811%, 77.627563%, 65.266418%)" offset="0.765625"/><stop stop-opacity="1" stop-color="rgb(35.317993%, 77.670288%, 65.550232%)" offset="0.773438"/><stop stop-opacity="1" stop-color="rgb(35.417175%, 77.711487%, 65.835571%)" offset="0.78125"/><stop stop-opacity="1" stop-color="rgb(35.516357%, 77.752686%, 66.120911%)" offset="0.789062"/><stop stop-opacity="1" stop-color="rgb(35.61554%, 77.79541%, 66.40625%)" offset="0.796875"/><stop stop-opacity="1" stop-color="rgb(35.714722%, 77.836609%, 66.691589%)" offset="0.804688"/><stop stop-opacity="1" stop-color="rgb(35.812378%, 77.877808%, 66.976929%)" offset="0.8125"/><stop stop-opacity="1" stop-color="rgb(35.91156%, 77.920532%, 67.260742%)" offset="0.820312"/><stop stop-opacity="1" stop-color="rgb(36.010742%, 77.961731%, 67.546082%)" offset="0.828125"/><stop stop-opacity="1" stop-color="rgb(36.079407%, 77.990723%, 67.744446%)" offset="0.84375"/><stop stop-opacity="1" stop-color="rgb(36.099243%, 77.999878%, 67.799377%)" offset="0.875"/><stop stop-opacity="1" stop-color="rgb(36.099243%, 77.999878%, 67.799377%)" offset="1"/></linearGradient><clipPath id="aaf4222bbe"><path d="M 317 77 L 368.785156 77 L 368.785156 128 L 317 128 Z M 317 77 " clip-rule="nonzero"/></clipPath></defs><rect x="-37.5" width="450" fill="#ffffff" y="-21" height="251.999995" fill-opacity="1"/><rect x="-37.5" width="450" fill="#ffffff" y="-21" height="251.999995" fill-opacity="1"/><rect x="-37.5" width="450" fill="#ffffff" y="-21" height="251.999995" fill-opacity="1"/><g clip-path="url(#4fc2ddc1d5)"><path fill="#747a7e" d="M 163.992188 144.511719 C 163.523438 142.867188 163.058594 141.238281 162.59375 139.609375 C 162.585938 139.609375 162.578125 139.613281 162.570312 139.613281 C 162.03125 141.242188 161.492188 142.875 160.949219 144.511719 C 161.972656 144.511719 162.976562 144.511719 163.992188 144.511719 Z M 158.101562 148.746094 C 158.148438 148.707031 158.1875 148.636719 158.234375 148.632812 C 158.589844 148.617188 158.765625 148.378906 158.890625 148.097656 C 159.039062 147.753906 159.164062 147.398438 159.285156 147.042969 C 160.113281 144.667969 160.941406 142.292969 161.761719 139.917969 C 161.808594 139.789062 161.835938 139.652344 161.855469 139.515625 C 161.878906 139.320312 161.816406 139.226562 161.636719 139.140625 C 161.597656 139.121094 161.554688 139.101562 161.515625 139.078125 C 161.363281 138.96875 161.367188 138.753906 161.53125 138.667969 C 161.632812 138.617188 161.757812 138.582031 161.871094 138.578125 C 162.3125 138.570312 162.757812 138.574219 163.203125 138.574219 C 163.441406 138.574219 163.609375 138.679688 163.6875 138.902344 C 163.808594 139.257812 163.921875 139.617188 164.03125 139.976562 C 164.8125 142.570312 165.59375 145.160156 166.378906 147.75 C 166.445312 147.976562 166.542969 148.195312 166.636719 148.414062 C 166.695312 148.550781 166.808594 148.625 166.964844 148.625 C 167.042969 148.625 167.136719 148.617188 167.160156 148.71875 C 167.183594 148.824219 167.15625 148.929688 167.0625 148.984375 C 166.972656 149.035156 166.867188 149.082031 166.765625 149.082031 C 166.101562 149.09375 165.441406 149.089844 164.777344 149.082031 C 164.683594 149.082031 164.585938 149.039062 164.5 148.996094 C 164.402344 148.941406 164.375 148.839844 164.402344 148.734375 C 164.425781 148.636719 164.511719 148.628906 164.59375 148.621094 C 164.957031 148.582031 165.054688 148.476562 164.980469 148.109375 C 164.898438 147.710938 164.785156 147.320312 164.675781 146.929688 C 164.519531 146.355469 164.351562 145.777344 164.1875 145.195312 C 164.144531 145.195312 164.109375 145.195312 164.070312 145.195312 C 162.996094 145.195312 161.917969 145.195312 160.84375 145.191406 C 160.753906 145.191406 160.71875 145.21875 160.691406 145.300781 C 160.417969 146.167969 160.136719 147.03125 159.867188 147.898438 C 159.824219 148.03125 159.824219 148.179688 159.828125 148.320312 C 159.835938 148.507812 159.929688 148.59375 160.117188 148.613281 C 160.148438 148.617188 160.175781 148.621094 160.207031 148.625 C 160.292969 148.628906 160.375 148.644531 160.394531 148.742188 C 160.417969 148.84375 160.398438 148.953125 160.296875 149 C 160.207031 149.046875 160.097656 149.082031 159.992188 149.085938 C 159.503906 149.09375 159.015625 149.09375 158.523438 149.085938 C 158.34375 149.082031 158.167969 149.046875 158.101562 148.835938 C 158.101562 148.804688 158.101562 148.777344 158.101562 148.746094 " fill-opacity="1" fill-rule="nonzero"/></g><g clip-path="url(#7531a875e5)"><path fill="#747a7e" d="M 318.148438 141.636719 C 318.148438 142.226562 318.148438 142.820312 318.148438 143.410156 C 318.148438 143.5625 318.171875 143.613281 318.324219 143.648438 C 318.488281 143.6875 318.65625 143.71875 318.820312 143.726562 C 319.328125 143.75 319.839844 143.789062 320.34375 143.671875 C 321.15625 143.480469 321.726562 143.011719 321.988281 142.199219 C 322.125 141.78125 322.128906 141.351562 322.074219 140.921875 C 321.96875 140.117188 321.597656 139.550781 320.691406 139.339844 C 320.054688 139.1875 319.40625 139.210938 318.757812 139.265625 C 318.257812 139.304688 318.148438 139.457031 318.148438 139.964844 C 318.148438 140.519531 318.148438 141.078125 318.148438 141.636719 Z M 318.148438 144.324219 C 318.148438 144.371094 318.148438 144.40625 318.148438 144.445312 C 318.148438 145.570312 318.144531 146.695312 318.152344 147.824219 C 318.152344 147.988281 318.179688 148.160156 318.21875 148.324219 C 318.261719 148.503906 318.386719 148.609375 318.582031 148.617188 C 318.6875 148.621094 318.792969 148.636719 318.808594 148.777344 C 318.824219 148.890625 318.757812 148.996094 318.628906 149.039062 C 318.539062 149.066406 318.441406 149.085938 318.347656 149.085938 C 317.761719 149.089844 317.175781 149.089844 316.589844 149.085938 C 316.480469 149.082031 316.371094 149.054688 316.265625 149.019531 C 316.167969 148.984375 316.121094 148.902344 316.121094 148.792969 C 316.121094 148.695312 316.167969 148.621094 316.265625 148.625 C 316.59375 148.640625 316.734375 148.417969 316.769531 148.074219 C 316.777344 147.957031 316.78125 147.84375 316.78125 147.726562 C 316.78125 145.117188 316.785156 142.507812 316.78125 139.898438 C 316.78125 139.71875 316.757812 139.53125 316.714844 139.355469 C 316.664062 139.140625 316.535156 139.054688 316.316406 139.042969 C 316.230469 139.035156 316.152344 139.023438 316.128906 138.925781 C 316.097656 138.824219 316.136719 138.699219 316.230469 138.65625 C 316.320312 138.613281 316.417969 138.578125 316.515625 138.578125 C 317.820312 138.574219 319.125 138.566406 320.433594 138.585938 C 321.050781 138.59375 321.660156 138.691406 322.234375 138.945312 C 323.050781 139.308594 323.480469 139.941406 323.546875 140.828125 C 323.609375 141.675781 323.410156 142.449219 322.867188 143.109375 C 322.367188 143.722656 321.695312 144.042969 320.9375 144.199219 C 320.902344 144.207031 320.871094 144.214844 320.824219 144.226562 C 321.074219 144.636719 321.304688 145.046875 321.5625 145.4375 C 322 146.113281 322.449219 146.78125 322.90625 147.445312 C 323.136719 147.78125 323.4375 148.058594 323.757812 148.3125 C 323.785156 148.339844 323.816406 148.363281 323.84375 148.386719 C 324.054688 148.582031 324.054688 148.785156 323.828125 148.96875 C 323.578125 149.171875 323.277344 149.199219 322.96875 149.167969 C 322.523438 149.125 322.203125 148.855469 321.953125 148.519531 C 321.636719 148.085938 321.34375 147.632812 321.066406 147.175781 C 320.585938 146.382812 320.125 145.578125 319.660156 144.773438 C 319.507812 144.503906 319.292969 144.386719 318.984375 144.382812 C 318.710938 144.378906 318.4375 144.347656 318.148438 144.324219 " fill-opacity="1" fill-rule="nonzero"/></g><g clip-path="url(#4b993dbceb)"><path fill="#747a7e" d="M 187.890625 143.707031 C 187.890625 144.949219 187.890625 146.1875 187.890625 147.429688 C 187.890625 147.515625 187.890625 147.605469 187.894531 147.695312 C 187.921875 148.097656 188.054688 148.261719 188.453125 148.308594 C 189.019531 148.378906 189.589844 148.382812 190.160156 148.304688 C 190.828125 148.214844 191.421875 147.949219 191.914062 147.476562 C 192.441406 146.96875 192.753906 146.339844 192.945312 145.644531 C 193.269531 144.460938 193.296875 143.257812 193.089844 142.050781 C 192.996094 141.511719 192.820312 141.003906 192.507812 140.546875 C 191.976562 139.773438 191.203125 139.421875 190.300781 139.292969 C 189.738281 139.210938 189.171875 139.230469 188.605469 139.25 C 188.488281 139.253906 188.367188 139.269531 188.253906 139.296875 C 188.003906 139.351562 187.898438 139.484375 187.890625 139.742188 C 187.890625 139.789062 187.890625 139.835938 187.890625 139.878906 C 187.890625 141.15625 187.890625 142.429688 187.890625 143.707031 Z M 188.367188 138.558594 C 189.039062 138.574219 189.714844 138.574219 190.386719 138.605469 C 191.152344 138.640625 191.898438 138.78125 192.589844 139.136719 C 193.394531 139.550781 193.929688 140.203125 194.253906 141.039062 C 194.5 141.664062 194.605469 142.316406 194.648438 142.984375 C 194.691406 143.632812 194.679688 144.28125 194.53125 144.917969 C 194.195312 146.371094 193.453125 147.550781 192.179688 148.355469 C 191.511719 148.78125 190.777344 149.011719 189.988281 149.066406 C 189.753906 149.085938 189.519531 149.089844 189.289062 149.089844 C 188.34375 149.089844 187.402344 149.09375 186.460938 149.085938 C 186.316406 149.085938 186.164062 149.058594 186.023438 149.023438 C 185.917969 148.996094 185.863281 148.910156 185.863281 148.796875 C 185.863281 148.695312 185.90625 148.625 186.011719 148.628906 C 186.320312 148.632812 186.464844 148.457031 186.507812 148.097656 C 186.519531 147.992188 186.523438 147.882812 186.523438 147.773438 C 186.527344 145.144531 186.527344 142.511719 186.523438 139.878906 C 186.523438 139.707031 186.5 139.527344 186.457031 139.355469 C 186.410156 139.160156 186.269531 139.046875 186.058594 139.039062 C 185.972656 139.039062 185.894531 139.023438 185.871094 138.925781 C 185.839844 138.820312 185.878906 138.695312 185.980469 138.660156 C 186.113281 138.613281 186.257812 138.578125 186.402344 138.574219 C 187.054688 138.566406 187.710938 138.574219 188.367188 138.574219 C 188.367188 138.566406 188.367188 138.5625 188.367188 138.558594 " fill-opacity="1" fill-rule="nonzero"/></g><g clip-path="url(#4f6800eef2)"><path fill="#747a7e" d="M 295.34375 144.097656 C 295.3125 143.636719 295.296875 143.175781 295.253906 142.71875 C 295.191406 142.0625 295.070312 141.417969 294.820312 140.804688 C 294.625 140.324219 294.363281 139.878906 293.9375 139.5625 C 293.078125 138.925781 292.128906 138.878906 291.160156 139.238281 C 290.476562 139.488281 290.0625 140.039062 289.789062 140.695312 C 289.484375 141.417969 289.371094 142.179688 289.355469 142.953125 C 289.34375 143.554688 289.363281 144.160156 289.402344 144.761719 C 289.441406 145.421875 289.558594 146.070312 289.789062 146.695312 C 289.96875 147.191406 290.21875 147.644531 290.617188 148.003906 C 291.082031 148.425781 291.640625 148.605469 292.253906 148.640625 C 292.945312 148.683594 293.570312 148.507812 294.097656 148.035156 C 294.585938 147.601562 294.863281 147.046875 295.046875 146.433594 C 295.277344 145.671875 295.335938 144.890625 295.34375 144.097656 Z M 287.832031 143.902344 C 287.847656 143.003906 287.949219 142.113281 288.25 141.253906 C 288.554688 140.378906 289.042969 139.632812 289.820312 139.101562 C 290.363281 138.730469 290.964844 138.523438 291.609375 138.429688 C 292.320312 138.328125 293.03125 138.328125 293.726562 138.527344 C 294.84375 138.839844 295.65625 139.53125 296.199219 140.550781 C 296.570312 141.246094 296.757812 142 296.824219 142.785156 C 296.910156 143.78125 296.84375 144.769531 296.589844 145.742188 C 296.351562 146.652344 295.949219 147.476562 295.269531 148.140625 C 294.570312 148.824219 293.726562 149.195312 292.761719 149.296875 C 291.960938 149.382812 291.1875 149.289062 290.453125 148.949219 C 289.460938 148.488281 288.78125 147.726562 288.339844 146.738281 C 287.9375 145.835938 287.808594 144.882812 287.832031 143.902344 " fill-opacity="1" fill-rule="nonzero"/></g><g clip-path="url(#e785a4922b)"><path fill="#747a7e" d="M 265.109375 149.320312 C 264.511719 149.300781 263.804688 149.222656 263.132812 148.9375 C 262.832031 148.804688 262.558594 148.632812 262.347656 148.371094 C 262.15625 148.136719 262.050781 147.863281 262.042969 147.558594 C 262.035156 147.253906 262.039062 146.945312 262.140625 146.65625 C 262.191406 146.519531 262.265625 146.378906 262.363281 146.277344 C 262.5625 146.066406 262.808594 146.125 262.910156 146.398438 C 263.003906 146.660156 263.078125 146.929688 263.175781 147.191406 C 263.515625 148.101562 264.183594 148.566406 265.144531 148.632812 C 265.667969 148.671875 266.175781 148.625 266.660156 148.40625 C 267.296875 148.109375 267.621094 147.59375 267.703125 146.902344 C 267.800781 146.046875 267.402344 145.460938 266.699219 145.054688 C 266.058594 144.691406 265.398438 144.371094 264.757812 144.015625 C 264.261719 143.738281 263.761719 143.464844 263.296875 143.148438 C 262.722656 142.757812 262.359375 142.203125 262.257812 141.5 C 262.078125 140.3125 262.667969 139.242188 263.777344 138.738281 C 264.398438 138.457031 265.050781 138.371094 265.726562 138.394531 C 266.34375 138.417969 266.953125 138.503906 267.539062 138.714844 C 267.722656 138.785156 267.90625 138.875 268.070312 138.984375 C 268.339844 139.164062 268.488281 139.433594 268.492188 139.761719 C 268.496094 140.152344 268.453125 140.539062 268.292969 140.898438 C 268.242188 141.011719 268.171875 141.125 268.085938 141.210938 C 267.902344 141.390625 267.683594 141.339844 267.59375 141.101562 C 267.523438 140.917969 267.484375 140.726562 267.421875 140.539062 C 267.367188 140.367188 267.308594 140.195312 267.238281 140.03125 C 267.039062 139.570312 266.6875 139.28125 266.203125 139.164062 C 265.71875 139.046875 265.230469 139.03125 264.746094 139.140625 C 263.972656 139.308594 263.535156 139.863281 263.523438 140.675781 C 263.523438 140.875 263.539062 141.074219 263.574219 141.269531 C 263.636719 141.613281 263.832031 141.886719 264.117188 142.070312 C 264.535156 142.34375 264.964844 142.601562 265.40625 142.835938 C 265.984375 143.148438 266.578125 143.421875 267.160156 143.722656 C 267.5625 143.933594 267.929688 144.199219 268.261719 144.507812 C 268.75 144.960938 269 145.519531 269.007812 146.183594 C 269.019531 147.476562 268.375 148.359375 267.261719 148.929688 C 266.671875 149.234375 266.089844 149.332031 265.109375 149.320312 " fill-opacity="1" fill-rule="nonzero"/></g><g clip-path="url(#b79d0c4309)"><path fill="#747a7e" d="M 217.980469 147.183594 C 218.117188 146.753906 218.242188 146.355469 218.367188 145.957031 C 219.003906 143.925781 219.640625 141.894531 220.273438 139.863281 C 220.324219 139.699219 220.347656 139.519531 220.351562 139.34375 C 220.355469 139.15625 220.246094 139.054688 220.074219 139.039062 C 219.996094 139.035156 219.925781 139.023438 219.902344 138.9375 C 219.878906 138.835938 219.898438 138.730469 219.996094 138.6875 C 220.109375 138.636719 220.234375 138.585938 220.355469 138.582031 C 220.789062 138.570312 221.226562 138.574219 221.664062 138.582031 C 221.742188 138.582031 221.828125 138.613281 221.902344 138.652344 C 221.992188 138.695312 222.03125 138.820312 222.003906 138.921875 C 221.980469 139.019531 221.90625 139.039062 221.820312 139.042969 C 221.644531 139.050781 221.503906 139.136719 221.421875 139.285156 C 221.3125 139.480469 221.210938 139.683594 221.136719 139.894531 C 220.148438 142.820312 219.164062 145.75 218.171875 148.679688 C 218.109375 148.867188 218.027344 149.054688 217.914062 149.214844 C 217.703125 149.519531 217.382812 149.488281 217.238281 149.148438 C 217.105469 148.828125 217 148.492188 216.886719 148.164062 C 215.933594 145.351562 214.984375 142.539062 214.03125 139.730469 C 213.976562 139.5625 213.890625 139.398438 213.808594 139.242188 C 213.738281 139.117188 213.628906 139.046875 213.480469 139.039062 C 213.402344 139.039062 213.324219 139.039062 213.296875 138.9375 C 213.269531 138.824219 213.300781 138.703125 213.398438 138.65625 C 213.480469 138.613281 213.578125 138.582031 213.671875 138.578125 C 214.320312 138.574219 214.972656 138.574219 215.625 138.578125 C 215.714844 138.578125 215.8125 138.613281 215.898438 138.648438 C 216.003906 138.695312 216.042969 138.804688 216.015625 138.921875 C 215.992188 139.03125 215.90625 139.035156 215.820312 139.039062 C 215.636719 139.054688 215.515625 139.164062 215.507812 139.347656 C 215.503906 139.460938 215.515625 139.585938 215.546875 139.695312 C 215.929688 140.882812 216.3125 142.066406 216.699219 143.253906 C 217.113281 144.523438 217.527344 145.789062 217.941406 147.058594 C 217.949219 147.089844 217.960938 147.125 217.980469 147.183594 " fill-opacity="1" fill-rule="nonzero"/></g><g clip-path="url(#6d353fa182)"><path fill="#747a7e" d="M 346.570312 144.210938 C 346.6875 143.941406 346.796875 143.6875 346.90625 143.429688 C 347.429688 142.21875 347.953125 141.007812 348.46875 139.792969 C 348.523438 139.664062 348.5625 139.527344 348.589844 139.386719 C 348.628906 139.171875 348.539062 139.066406 348.324219 139.039062 C 348.242188 139.027344 348.179688 138.996094 348.164062 138.914062 C 348.144531 138.8125 348.164062 138.710938 348.261719 138.664062 C 348.351562 138.621094 348.453125 138.582031 348.554688 138.578125 C 348.957031 138.570312 349.363281 138.574219 349.769531 138.578125 C 349.859375 138.582031 349.953125 138.613281 350.035156 138.648438 C 350.128906 138.691406 350.175781 138.808594 350.148438 138.902344 C 350.121094 139 350.050781 139.039062 349.953125 139.039062 C 349.785156 139.042969 349.664062 139.132812 349.589844 139.269531 C 349.476562 139.464844 349.371094 139.664062 349.273438 139.867188 C 348.519531 141.46875 347.765625 143.066406 347.023438 144.671875 C 346.949219 144.828125 346.902344 145.007812 346.902344 145.179688 C 346.890625 146.109375 346.890625 147.039062 346.898438 147.96875 C 346.898438 148.097656 346.929688 148.226562 346.96875 148.351562 C 347.019531 148.511719 347.132812 148.605469 347.308594 148.617188 C 347.414062 148.625 347.53125 148.625 347.546875 148.773438 C 347.5625 148.910156 347.496094 149.003906 347.339844 149.046875 C 347.265625 149.070312 347.183594 149.085938 347.101562 149.085938 C 346.507812 149.089844 345.914062 149.089844 345.324219 149.085938 C 345.214844 149.082031 345.101562 149.050781 345 149.015625 C 344.894531 148.976562 344.855469 148.882812 344.863281 148.773438 C 344.867188 148.691406 344.910156 148.640625 344.996094 148.625 C 345.386719 148.546875 345.492188 148.425781 345.515625 148.019531 C 345.523438 147.867188 345.519531 147.71875 345.519531 147.570312 C 345.519531 146.839844 345.515625 146.109375 345.523438 145.378906 C 345.523438 145.089844 345.464844 144.820312 345.339844 144.558594 C 344.527344 142.878906 343.726562 141.199219 342.921875 139.515625 C 342.871094 139.414062 342.808594 139.316406 342.746094 139.21875 C 342.675781 139.105469 342.566406 139.042969 342.429688 139.042969 C 342.339844 139.039062 342.257812 139.027344 342.234375 138.921875 C 342.207031 138.808594 342.25 138.695312 342.355469 138.648438 C 342.4375 138.613281 342.527344 138.582031 342.617188 138.578125 C 343.25 138.574219 343.882812 138.574219 344.511719 138.582031 C 344.605469 138.582031 344.703125 138.617188 344.785156 138.664062 C 344.875 138.710938 344.90625 138.808594 344.878906 138.910156 C 344.859375 139.007812 344.785156 139.03125 344.699219 139.039062 C 344.519531 139.0625 344.429688 139.160156 344.453125 139.347656 C 344.472656 139.488281 344.5 139.636719 344.558594 139.769531 C 345.214844 141.230469 345.875 142.691406 346.535156 144.152344 C 346.542969 144.167969 346.550781 144.183594 346.570312 144.210938 " fill-opacity="1" fill-rule="nonzero"/></g><g clip-path="url(#8368559b77)"><path fill="#747a7e" d="M 241.832031 138.574219 C 242.136719 138.574219 242.445312 138.570312 242.75 138.578125 C 242.851562 138.582031 242.953125 138.613281 243.046875 138.648438 C 243.148438 138.691406 243.195312 138.816406 243.167969 138.910156 C 243.140625 139.015625 243.058594 139.039062 242.960938 139.039062 C 242.765625 139.042969 242.628906 139.144531 242.582031 139.332031 C 242.539062 139.503906 242.515625 139.6875 242.511719 139.863281 C 242.507812 142.375 242.511719 144.890625 242.511719 147.402344 C 242.511719 147.644531 242.523438 147.886719 242.53125 148.128906 C 242.535156 148.183594 242.550781 148.242188 242.566406 148.296875 C 242.628906 148.515625 242.730469 148.59375 242.957031 148.617188 C 243.039062 148.628906 243.132812 148.621094 243.152344 148.734375 C 243.175781 148.863281 243.136719 148.972656 243.027344 149.015625 C 242.933594 149.054688 242.828125 149.082031 242.726562 149.085938 C 242.125 149.089844 241.523438 149.089844 240.925781 149.085938 C 240.839844 149.085938 240.753906 149.066406 240.675781 149.042969 C 240.539062 148.996094 240.488281 148.898438 240.5 148.757812 C 240.503906 148.671875 240.542969 148.636719 240.628906 148.625 C 240.972656 148.574219 241.09375 148.449219 241.128906 148.097656 C 241.140625 147.988281 241.144531 147.875 241.144531 147.765625 C 241.144531 145.140625 241.148438 142.515625 241.144531 139.890625 C 241.140625 139.714844 241.121094 139.53125 241.082031 139.355469 C 241.027344 139.144531 240.898438 139.054688 240.683594 139.042969 C 240.597656 139.035156 240.519531 139.023438 240.492188 138.929688 C 240.460938 138.828125 240.496094 138.703125 240.59375 138.660156 C 240.695312 138.617188 240.804688 138.582031 240.914062 138.578125 C 241.21875 138.570312 241.527344 138.574219 241.832031 138.574219 " fill-opacity="1" fill-rule="nonzero"/></g><g clip-path="url(#80dfa34997)"><path fill="#1a1d29" d="M 6.535156 126.886719 L 6.535156 63.097656 L 50.296875 63.097656 L 50.296875 74.785156 L 21.023438 74.785156 L 21.023438 91.875 L 50.296875 91.875 L 50.296875 103.527344 L 21.023438 103.527344 L 21.023438 126.886719 L 6.535156 126.886719 " fill-opacity="1" fill-rule="nonzero"/></g><g clip-path="url(#c6bc33e207)"><g clip-path="url(#eeebf54090)"><g clip-path="url(#2c9e31956b)"><path fill="url(#ea5d372bd5)" d="M 70.910156 54.53125 L 50.347656 63.71875 L 59.421875 84.164062 L 79.984375 74.980469 Z M 70.910156 54.53125 " fill-rule="nonzero"/></g></g></g><path fill="#1a1d29" d="M 73.515625 77.761719 L 73.515625 126.886719 L 59.886719 126.886719 L 59.886719 85.074219 C 59.886719 84.292969 60.085938 83.515625 60.53125 82.867188 C 62.597656 79.871094 68.203125 79.535156 68.203125 79.535156 C 71.859375 79.347656 72.109375 77.761719 72.109375 77.761719 L 73.515625 77.761719 " fill-opacity="1" fill-rule="nonzero"/><path fill="#1a1d29" d="M 106.074219 77.042969 C 90.800781 77.042969 79.105469 87.5625 79.105469 102.351562 C 79.105469 117.539062 91.179688 127.621094 106.074219 127.621094 C 120.96875 127.621094 133.042969 117.769531 133.042969 102.351562 C 133.042969 86.953125 120.96875 77.042969 106.074219 77.042969 Z M 118.761719 102.371094 C 118.761719 109.945312 113.835938 116.089844 106.078125 116.089844 C 98.140625 116.089844 93.484375 109.945312 93.484375 102.371094 C 93.484375 94.792969 98.140625 88.648438 106.078125 88.648438 C 114.109375 88.648438 118.761719 94.792969 118.761719 102.371094 " fill-opacity="1" fill-rule="nonzero"/><path fill="#1a1d29" d="M 184.125 97.9375 C 184.125 97.9375 184.433594 91.386719 191.039062 88.792969 C 194.226562 87.539062 197.796875 87.53125 200.988281 88.777344 C 203.980469 89.945312 207.40625 92.46875 208.09375 97.9375 Z M 221.289062 98.460938 C 221.289062 98.113281 221.261719 97.761719 221.203125 97.417969 C 217.523438 76.457031 196.566406 77.039062 196.566406 77.039062 C 181.53125 77.039062 170.023438 87.5625 170.023438 102.351562 C 170.023438 117.542969 181.8125 127.308594 196.566406 127.808594 C 196.566406 127.808594 210.554688 128.628906 218.011719 119.65625 L 210.570312 111.421875 C 210.570312 111.421875 206.738281 116.410156 198.425781 116.410156 C 198.425781 116.410156 186.925781 116.976562 184.011719 106.222656 L 221.289062 106.222656 L 221.289062 98.460938 " fill-opacity="1" fill-rule="nonzero"/><g clip-path="url(#aaf4222bbe)"><path fill="#1a1d29" d="M 331.613281 97.9375 C 331.613281 97.9375 331.921875 91.386719 338.53125 88.792969 C 341.71875 87.539062 345.289062 87.53125 348.480469 88.777344 C 351.472656 89.945312 354.894531 92.46875 355.582031 97.9375 Z M 368.78125 98.460938 C 368.78125 98.113281 368.753906 97.761719 368.691406 97.417969 C 365.011719 76.457031 344.054688 77.039062 344.054688 77.039062 C 329.019531 77.039062 317.511719 87.5625 317.511719 102.351562 C 317.511719 117.542969 329.300781 127.308594 344.054688 127.808594 C 344.054688 127.808594 358.042969 128.628906 365.5 119.65625 L 358.0625 111.421875 C 358.0625 111.421875 354.226562 116.410156 345.917969 116.410156 C 345.917969 116.410156 334.414062 116.976562 331.503906 106.222656 L 368.78125 106.222656 L 368.78125 98.460938 " fill-opacity="1" fill-rule="nonzero"/></g><path fill="#1a1d29" d="M 138.773438 77.761719 L 138.773438 126.886719 L 152.988281 126.886719 L 152.988281 102.527344 C 152.988281 100.578125 153.359375 98.640625 154.15625 96.867188 C 155.3125 94.292969 157.601562 91.375 162.109375 90.46875 C 162.890625 90.3125 163.683594 90.25 164.480469 90.234375 L 169.175781 90.152344 L 169.175781 77.042969 C 169.175781 77.042969 157.472656 76.289062 152.4375 84.210938 L 152.4375 77.761719 L 138.773438 77.761719 " fill-opacity="1" fill-rule="nonzero"/><path fill="#1a1d29" d="M 257.824219 77.042969 C 257.824219 77.042969 246.851562 76.039062 241.089844 83.65625 L 241.089844 77.761719 L 227.425781 77.761719 L 227.425781 126.886719 L 241.636719 126.886719 L 241.636719 99.582031 C 241.636719 99.582031 241.957031 89.894531 253.050781 89.347656 C 253.050781 89.347656 262.84375 88.601562 263.035156 98.652344 L 263.035156 126.886719 L 277.582031 126.886719 L 277.582031 96.71875 C 277.582031 96.71875 278.140625 77.851562 257.824219 77.042969 " fill-opacity="1" fill-rule="nonzero"/><path fill="#1a1d29" d="M 314.242188 114.496094 C 311.148438 116.246094 308.929688 116.167969 308.929688 116.167969 C 302.738281 116.167969 302.738281 111.3125 302.738281 111.3125 L 302.738281 89.882812 L 314.863281 89.882812 L 314.863281 78.691406 L 302.738281 78.691406 L 302.738281 66.898438 L 288.539062 66.898438 L 288.539062 78.691406 L 280.472656 78.691406 L 280.472656 89.882812 L 288.539062 89.882812 L 288.539062 113.539062 C 290.601562 128.902344 306.546875 127.828125 306.546875 127.828125 C 313.769531 127.828125 318.210938 124.523438 318.210938 124.523438 L 314.242188 114.496094 " fill-opacity="1" fill-rule="nonzero"/></svg>